<?xml version="1.0" encoding="UTF-8"?>
<svg id="frameRight" preserveAspectRatio="none" data-name="Слой 2" xmlns="http://www.w3.org/2000/svg" xmlns:xlink="http://www.w3.org/1999/xlink" viewBox="0 0 93 912">
  <defs>
    <style>
      .cls-1 {
        fill: url(#_Безымянный_градиент_502-2);
      }

      .cls-1, .cls-2, .cls-3, .cls-4, .cls-5, .cls-6, .cls-7, .cls-8, .cls-9, .cls-10, .cls-11, .cls-12, .cls-13, .cls-14, .cls-15, .cls-16, .cls-17, .cls-18, .cls-19, .cls-20, .cls-21, .cls-22, .cls-23, .cls-24, .cls-25, .cls-26, .cls-27, .cls-28 {
        stroke-width: 0px;
      }

      .cls-2 {
        fill: url(#_Безымянный_градиент_163-2);
      }

      .cls-3 {
        fill: url(#_Безымянный_градиент_151-2);
      }

      .cls-4 {
        fill: url(#_Безымянный_градиент_502-3);
      }

      .cls-5 {
        fill: url(#_Безымянный_градиент_158);
      }

      .cls-6 {
        fill: url(#_Безымянный_градиент_152);
      }

      .cls-7 {
        fill: url(#_Безымянный_градиент_151);
      }

      .cls-8 {
        fill: url(#_Безымянный_градиент_153-3);
      }

      .cls-9 {
        fill: url(#_Безымянный_градиент_157-2);
      }

      .cls-10 {
        fill: url(#_Безымянный_градиент_502-4);
      }

      .cls-11 {
        fill: url(#_Безымянный_градиент_156);
      }

      .cls-12 {
        fill: url(#_Безымянный_градиент_161);
      }

      .cls-13 {
        fill: url(#_Безымянный_градиент_224);
      }

      .cls-14 {
        fill: url(#_Безымянный_градиент_153);
      }

      .cls-15 {
        fill: url(#_Безымянный_градиент_166);
      }

      .cls-16 {
        fill: url(#_Безымянный_градиент_156-2);
      }

      .cls-17 {
        fill: url(#_Безымянный_градиент_166-2);
      }

      .cls-18 {
        fill: url(#_Безымянный_градиент_153-2);
      }

      .cls-19 {
        fill: url(#_Безымянный_градиент_502-6);
      }

      .cls-20 {
        fill: url(#_Безымянный_градиент_163);
      }

      .cls-21 {
        fill: url(#_Безымянный_градиент_153-5);
      }

      .cls-22 {
        fill: url(#_Безымянный_градиент_152-2);
      }

      .cls-23 {
        fill: url(#_Безымянный_градиент_157);
      }

      .cls-24 {
        fill: url(#_Безымянный_градиент_502);
      }

      .cls-25 {
        fill: url(#_Безымянный_градиент_502-5);
      }

      .cls-26 {
        fill: url(#_Безымянный_градиент_153-4);
      }

      .cls-27 {
        fill: url(#_Безымянный_градиент_158-2);
      }

      .cls-28 {
        fill: url(#_Безымянный_градиент_162);
      }
    </style>
    <linearGradient id="_Безымянный_градиент_151" data-name="Безымянный градиент 151" x1="-2870.05" y1="725" x2="-2870.05" y2="844" gradientTransform="translate(-2819.05 844) rotate(-180)" gradientUnits="userSpaceOnUse">
      <stop offset=".04" stop-color="gray"/>
      <stop offset=".13" stop-color="#868686"/>
      <stop offset=".69" stop-color="#a7a7a7"/>
      <stop offset="1" stop-color="#b3b3b3"/>
    </linearGradient>
    <linearGradient id="_Безымянный_градиент_152" data-name="Безымянный градиент 152" x1="-2827.76" y1="802.96" x2="-2818.76" y2="802.96" gradientTransform="translate(-2819.05 844) rotate(-180)" gradientUnits="userSpaceOnUse">
      <stop offset=".04" stop-color="gray"/>
      <stop offset=".1" stop-color="#8c8c8c"/>
      <stop offset=".21" stop-color="#9d9d9d"/>
      <stop offset=".36" stop-color="#aaa"/>
      <stop offset=".55" stop-color="#b1b1b1"/>
      <stop offset="1" stop-color="#b3b3b3"/>
    </linearGradient>
    <linearGradient id="_Безымянный_градиент_153" data-name="Безымянный градиент 153" x1="-2884.59" y1="724.76" x2="-2884.59" y2="717.76" gradientTransform="translate(-2819.05 844) rotate(-180)" gradientUnits="userSpaceOnUse">
      <stop offset=".04" stop-color="gray"/>
      <stop offset=".1" stop-color="#8e8e8e"/>
      <stop offset=".2" stop-color="#9f9f9f"/>
      <stop offset=".33" stop-color="#aaa"/>
      <stop offset=".51" stop-color="#b1b1b1"/>
      <stop offset="1" stop-color="#b3b3b3"/>
    </linearGradient>
    <linearGradient id="_Безымянный_градиент_153-2" data-name="Безымянный градиент 153" x1="-2845.37" y1="745.7" x2="-2837.18" y2="739.18" xlink:href="#_Безымянный_градиент_153"/>
    <linearGradient id="_Безымянный_градиент_156" data-name="Безымянный градиент 156" x1="-2881" y1="755.57" x2="-2853.73" y2="796.33" gradientTransform="translate(-2819.05 844) rotate(-180)" gradientUnits="userSpaceOnUse">
      <stop offset="0" stop-color="#e6e6e6"/>
      <stop offset=".18" stop-color="#e2e2e2"/>
      <stop offset=".34" stop-color="#d7d7d7"/>
      <stop offset=".5" stop-color="#c4c4c4"/>
      <stop offset=".65" stop-color="#aaa"/>
      <stop offset=".81" stop-color="#888"/>
      <stop offset=".93" stop-color="#666"/>
    </linearGradient>
    <radialGradient id="_Безымянный_градиент_157" data-name="Безымянный градиент 157" cx="-2867.92" cy="775.4" fx="-2881.96" fy="775.4" r="22.99" gradientTransform="translate(-2819.05 844.93) rotate(-180)" gradientUnits="userSpaceOnUse">
      <stop offset="0" stop-color="#415975"/>
      <stop offset=".3" stop-color="#415873"/>
      <stop offset=".45" stop-color="#3f536b"/>
      <stop offset=".57" stop-color="#3c4c5e"/>
      <stop offset=".67" stop-color="#38414b"/>
      <stop offset=".76" stop-color="#333"/>
    </radialGradient>
    <linearGradient id="_Безымянный_градиент_158" data-name="Безымянный градиент 158" x1="-2888.05" y1="1028.95" x2="-2888.05" y2="861.95" gradientTransform="translate(-2819.05 -242.95) rotate(-180) scale(1 -1)" gradientUnits="userSpaceOnUse">
      <stop offset="0" stop-color="#667787"/>
      <stop offset=".05" stop-color="#687989"/>
      <stop offset=".65" stop-color="#7c94a4"/>
      <stop offset="1" stop-color="#849eae"/>
    </linearGradient>
    <linearGradient id="_Безымянный_градиент_161" data-name="Безымянный градиент 161" x1="-2896.05" y1="553" x2="-2896.05" y2="551" gradientTransform="translate(-2819.05 844) rotate(-180)" gradientUnits="userSpaceOnUse">
      <stop offset="0" stop-color="#fff" stop-opacity=".5"/>
      <stop offset=".03" stop-color="#fbfbfb" stop-opacity=".51"/>
      <stop offset=".18" stop-color="#f7f7f7" stop-opacity=".51"/>
      <stop offset=".33" stop-color="#ebebeb" stop-opacity=".51"/>
      <stop offset=".48" stop-color="#d8d8d8" stop-opacity=".51"/>
      <stop offset=".62" stop-color="#bcbcbc" stop-opacity=".5"/>
      <stop offset=".76" stop-color="#989898" stop-opacity=".5"/>
      <stop offset=".91" stop-color="#6e6e6e" stop-opacity=".5"/>
      <stop offset="1" stop-color="#4d4d4d" stop-opacity=".5"/>
    </linearGradient>
    <linearGradient id="_Безымянный_градиент_162" data-name="Безымянный градиент 162" x1="-2911.99" y1="389" x2="-2879.99" y2="389" gradientTransform="translate(-2819.05 844) rotate(-180)" gradientUnits="userSpaceOnUse">
      <stop offset="0" stop-color="#2d2d38"/>
      <stop offset=".51" stop-color="#3c3d4a"/>
      <stop offset="1" stop-color="#4d5160"/>
    </linearGradient>
    <linearGradient id="_Безымянный_градиент_151-2" data-name="Безымянный градиент 151" x1="-2870.05" y1="403.59" x2="-2870.05" y2="522.59" gradientTransform="translate(-2819.05 389.41) rotate(-180) scale(1 -1)" xlink:href="#_Безымянный_градиент_151"/>
    <linearGradient id="_Безымянный_градиент_152-2" data-name="Безымянный градиент 152" x1="-2827.76" y1="481.59" x2="-2818.76" y2="481.59" gradientTransform="translate(-2819.05 389.41) rotate(-180) scale(1 -1)" xlink:href="#_Безымянный_градиент_152"/>
    <linearGradient id="_Безымянный_градиент_156-2" data-name="Безымянный градиент 156" x1="-2881.48" y1="433.94" x2="-2854.21" y2="474.7" gradientTransform="translate(-2819.05 389.41) rotate(-180) scale(1 -1)" xlink:href="#_Безымянный_градиент_156"/>
    <radialGradient id="_Безымянный_градиент_157-2" data-name="Безымянный градиент 157" cx="-2868.4" cy="454.12" fx="-2882.44" fy="454.12" gradientTransform="translate(-2819.05 388.48) rotate(-180) scale(1 -1)" xlink:href="#_Безымянный_градиент_157"/>
    <linearGradient id="_Безымянный_градиент_153-3" data-name="Безымянный градиент 153" x1="-2845.38" y1="813.83" x2="-2837.17" y2="807.29" gradientTransform="translate(-2819.05) rotate(-180) scale(1 -1)" xlink:href="#_Безымянный_градиент_153"/>
    <linearGradient id="_Безымянный_градиент_224" data-name="Безымянный градиент 224" x1="-2884.55" y1="792.76" x2="-2884.55" y2="785.76" gradientTransform="translate(-2819.05) rotate(-180) scale(1 -1)" gradientUnits="userSpaceOnUse">
      <stop offset=".04" stop-color="gray"/>
      <stop offset=".1" stop-color="#8e8e8e"/>
      <stop offset=".2" stop-color="#9f9f9f"/>
      <stop offset=".33" stop-color="#aaa"/>
      <stop offset=".51" stop-color="#b1b1b1"/>
      <stop offset="1" stop-color="#b3b3b3"/>
    </linearGradient>
    <linearGradient id="_Безымянный_градиент_163" data-name="Безымянный градиент 163" x1="-2895.48" y1="193.09" x2="-2885.01" y2="218.03" gradientTransform="translate(-2819.05 844) rotate(-180)" gradientUnits="userSpaceOnUse">
      <stop offset="0" stop-color="#fff"/>
      <stop offset=".24" stop-color="#fdfdfd"/>
      <stop offset=".38" stop-color="#f5f5f5"/>
      <stop offset=".48" stop-color="#e7e7e7"/>
      <stop offset=".57" stop-color="#d4d4d4"/>
      <stop offset=".6" stop-color="#ccc"/>
      <stop offset=".67" stop-color="#b9b9b9"/>
      <stop offset=".8" stop-color="#9a9a9a"/>
      <stop offset=".92" stop-color="#878787"/>
      <stop offset=".99" stop-color="gray"/>
    </linearGradient>
    <linearGradient id="_Безымянный_градиент_153-4" data-name="Безымянный градиент 153" x1="-2892.65" y1="192.23" x2="-2888.67" y2="216.94" xlink:href="#_Безымянный_градиент_153"/>
    <linearGradient id="_Безымянный_градиент_166" data-name="Безымянный градиент 166" x1="-2782.76" y1="-1254.32" x2="-2781.71" y2="-1247.8" gradientTransform="translate(-2258.86 1157.59) rotate(154.35) scale(.84 .43)" gradientUnits="userSpaceOnUse">
      <stop offset="0" stop-color="#1a1a1a"/>
      <stop offset=".43" stop-color="#121212"/>
      <stop offset=".99" stop-color="#000"/>
    </linearGradient>
    <linearGradient id="_Безымянный_градиент_502" data-name="Безымянный градиент 502" x1="-2895.55" y1="619" x2="-2895.55" y2="617" gradientTransform="translate(-2819.05) rotate(-180) scale(1 -1)" gradientUnits="userSpaceOnUse">
      <stop offset="0" stop-color="#fff"/>
      <stop offset=".33" stop-color="#7c94a4"/>
      <stop offset=".5" stop-color="#718696"/>
      <stop offset=".73" stop-color="#6a7c8c"/>
      <stop offset="1" stop-color="#687989"/>
      <stop offset="1" stop-color="#849eae"/>
    </linearGradient>
    <linearGradient id="_Безымянный_градиент_502-2" data-name="Безымянный градиент 502" x1="-2864.05" y1="709.5" x2="-2862.05" y2="709.5" xlink:href="#_Безымянный_градиент_502"/>
    <linearGradient id="_Безымянный_градиент_502-3" data-name="Безымянный градиент 502" x1="-2872.3" y1="626.75" x2="-2870.3" y2="624.75" xlink:href="#_Безымянный_градиент_502"/>
    <linearGradient id="_Безымянный_градиент_158-2" data-name="Безымянный градиент 158" x1="-2888.05" y1="1127.95" x2="-2888.05" y2="960.95" gradientTransform="translate(-2819.05 1253.95) rotate(-180)" xlink:href="#_Безымянный_градиент_158"/>
    <linearGradient id="_Безымянный_градиент_163-2" data-name="Безымянный градиент 163" x1="-2895.48" y1="94.09" x2="-2885.01" y2="119.03" gradientTransform="translate(-2819.05 167) rotate(-180) scale(1 -1)" xlink:href="#_Безымянный_градиент_163"/>
    <linearGradient id="_Безымянный_градиент_153-5" data-name="Безымянный градиент 153" x1="-2892.65" y1="93.23" x2="-2888.67" y2="117.94" gradientTransform="translate(-2819.05 167) rotate(-180) scale(1 -1)" xlink:href="#_Безымянный_градиент_153"/>
    <linearGradient id="_Безымянный_градиент_166-2" data-name="Безымянный градиент 166" x1="-2731.5" y1="-1460.51" x2="-2730.45" y2="-1454" gradientTransform="translate(-2258.86 -146.59) rotate(-154.35) scale(.84 -.43)" xlink:href="#_Безымянный_градиент_166"/>
    <linearGradient id="_Безымянный_градиент_502-4" data-name="Безымянный градиент 502" x1="-2895.55" y1="718" x2="-2895.55" y2="716" gradientTransform="translate(-2819.05 1011) rotate(-180)" xlink:href="#_Безымянный_градиент_502"/>
    <linearGradient id="_Безымянный_градиент_502-5" data-name="Безымянный градиент 502" x1="-2864.05" y1="808.5" x2="-2862.05" y2="808.5" gradientTransform="translate(-2819.05 1011) rotate(-180)" xlink:href="#_Безымянный_градиент_502"/>
    <linearGradient id="_Безымянный_градиент_502-6" data-name="Безымянный градиент 502" x1="-2872.3" y1="725.75" x2="-2870.3" y2="723.75" gradientTransform="translate(-2819.05 1011) rotate(-180)" xlink:href="#_Безымянный_градиент_502"/>
  </defs>
  <g id="_Слой_1-2" data-name="Слой 1">
    <g id="Side_Frame" data-name="Side Frame">
      <g id="Side_Frame_Right" data-name="Side Frame Right">
        <g>
          <path class="cls-7" d="m9.1,78c11.29,13.67,22.58,27.34,33.87,41h50.03v-41H9.1ZM9,0v78h84V0H9Z"/>
          <path class="cls-6" d="m9,78.09C6,79.42,3,80.76,0,82.09c0-27.36,0-54.73,0-82.09h9v78.09Z"/>
          <path class="cls-14" d="m93,126c-18.3,0-36.62,0-54.92,0,1.67-2.34,3.33-4.66,4.99-7,16.65,0,33.28,0,49.93,0v7Z"/>
          <path class="cls-18" d="m9,78.09c11.33,13.68,22.67,27.36,34,41.05-1.67,2.34-3.33,4.67-5,7.01C25.33,111.47,12.67,96.78,0,82.1c3-1.34,6-2.68,9-4.01Z"/>
          <ellipse class="cls-11" cx="49" cy="69.08" rx="24.5" ry="24.53"/>
          <ellipse class="cls-23" cx="49" cy="69.08" rx="17" ry="17.02"/>
        </g>
        <path class="cls-5" d="m61.04,619c-5.32,5.33-10.66,10.67-15.98,16h47.94v-16h-31.96Zm-16.04,16v151h48v-151h-48Z"/>
        <rect class="cls-12" x="61" y="291" width="32" height="2"/>
        <rect class="cls-28" x="61" y="293" width="32" height="324"/>
        <path class="cls-3" d="m42.97,793c-2.6,3.15-5.21,6.3-7.82,9.46-.42.51-.85,1.03-1.27,1.54-8.26,10-16.51,19.99-24.78,30h83.9v-41h-50.03Zm-33.97,41v78h84v-78H9Z"/>
        <path class="cls-22" d="m9,834c-1.44-.7-2.94-1.4-4.5-2.09C2.97,831.23,1.47,830.59,0,830c0,27.33,0,54.67,0,82h9c0-26,0-52,0-78Z"/>
        <ellipse class="cls-16" cx="49.48" cy="842.7" rx="24.5" ry="24.53"/>
        <ellipse class="cls-9" cx="49.48" cy="842.7" rx="17" ry="17.02"/>
        <path class="cls-8" d="m0,830c3,1.33,6,2.67,9,4,11.33-13.67,22.67-27.33,34-41-1.67-2.33-3.33-4.67-5-7C25.33,800.67,12.67,815.33,0,830Z"/>
        <path class="cls-13" d="m93,786c-18.33,0-36.67,0-55,0,1.67,2.33,3.33,4.67,5,7h50s0-7,0-7Z"/>
        <path class="cls-20" d="m84.36,635c-1.82-5.3-6.85-9.1-12.76-9.1s-10.94,3.81-12.76,9.1c-.48,1.38-.74,2.87-.74,4.41,0,7.47,6.04,13.53,13.5,13.53s13.5-6.05,13.5-13.52c0-1.55-.26-3.04-.74-4.42Zm-.28,5.05c0,.16-.02.32-.03.48-.01.16-.03.31-.05.47s-.04.32-.07.47c-.02.16-.05.31-.08.46-.05.25-.11.49-.18.73-.06.21-.11.41-.18.61-.01.04-.02.08-.04.12-.09.28-.19.55-.3.81-.1.25-.21.49-.33.72-.05.12-.11.24-.18.36-.22.43-.47.83-.74,1.22-.07.1-.14.2-.21.3-.34.46-.71.9-1.11,1.31-.18.19-.37.38-.57.56-.04.04-.08.07-.12.11-.22.19-.45.38-.69.56-.13.1-.26.2-.4.3-.15.11-.32.22-.48.32-.25.16-.5.31-.76.45-.18.11-.36.2-.54.28-.23.11-.46.21-.7.31-.05.02-.1.04-.15.06-.22.08-.45.17-.68.24-.17.06-.35.11-.53.16-.17.05-.35.1-.54.14-.23.05-.46.1-.69.14-.14.02-.27.05-.41.06-.19.03-.38.05-.57.07-.38.04-.76.06-1.15.06-.22,0-.43-.01-.64-.03-.16,0-.32-.02-.48-.03-.16-.01-.32-.03-.47-.05-.15-.02-.31-.04-.47-.07-.16-.02-.31-.05-.46-.08-.2-.04-.4-.08-.6-.14-.3-.08-.6-.17-.89-.27-.29-.1-.57-.2-.86-.32-.37-.17-.74-.34-1.09-.53s-.7-.4-1.03-.62c-.33-.23-.65-.47-.96-.72-.19-.16-.38-.33-.56-.5-.16-.15-.32-.3-.47-.46-.2-.21-.39-.42-.58-.64-.18-.21-.35-.44-.52-.66-.17-.23-.33-.47-.48-.71-.33-.52-.63-1.07-.88-1.65-.11-.24-.21-.49-.3-.74-.02-.06-.05-.12-.06-.19-.1-.28-.19-.57-.27-.86-.07-.24-.13-.48-.18-.73-.03-.15-.06-.3-.08-.46-.03-.15-.05-.31-.07-.47s-.04-.31-.05-.47c-.01-.16-.03-.32-.03-.48-.01-.21-.02-.42-.02-.64,0-.39.02-.77.05-1.15.05-.57.14-1.13.27-1.67.04-.18.09-.36.14-.54.05-.18.1-.36.16-.53.05-.18.12-.35.18-.52.09-.24.19-.47.29-.7.09-.21.19-.41.3-.61.13-.26.27-.52.42-.77.18-.29.36-.57.56-.84.12-.17.25-.33.37-.49.29-.35.59-.69.92-1.02,2.26-2.26,5.39-3.66,8.84-3.66s6.58,1.4,8.84,3.66c1.14,1.14,2.05,2.48,2.68,3.98.06.15.12.3.17.45h.01c.07.17.13.34.18.52.06.17.11.35.16.53s.1.36.14.54c.13.54.22,1.1.27,1.67.03.38.05.76.05,1.15,0,.22,0,.43-.02.64Z"/>
        <ellipse class="cls-26" cx="71.6" cy="639.41" rx="12.5" ry="12.51"/>
        <polygon class="cls-15" points="63.21 644.15 80.54 635.82 79.97 634.65 62.65 642.98 63.21 644.15"/>
        <path class="cls-24" d="m93,617c-11,0-22,0-33,0,.33.67.67,1.33,1,2h32s0-2,0-2Z"/>
        <path class="cls-1" d="m43,786h2s0-151,0-151c-.67-.67-1.33-1.33-2-2,0,51,0,102,0,153Z"/>
        <path class="cls-4" d="m45,635c5.33-5.33,10.67-10.67,16-16-.33-.67-.67-1.33-1-2-5.67,5.33-11.33,10.67-17,16,.67.67,1.33,1.33,2,2Z"/>
        <path class="cls-27" d="m45.06,277c5.31,5.32,10.63,10.64,15.94,15.96.01,0,.03.03.04.04h31.96v-16h-47.94Zm-.06-151v151h48V126h-48Z"/>
        <path class="cls-2" d="m71.6,259.06c-7.46,0-13.5,6.06-13.5,13.53,0,1.54.26,3.03.74,4.41,1.82,5.29,6.84,9.1,12.76,9.1s10.94-3.8,12.76-9.1c.48-1.38.74-2.87.74-4.42,0-7.47-6.04-13.52-13.5-13.52Zm11.69,17.94c-.05.15-.11.3-.17.45-.63,1.5-1.54,2.84-2.68,3.98-2.26,2.26-5.39,3.66-8.84,3.66s-6.58-1.4-8.84-3.66c-.33-.33-.63-.67-.92-1.02-.12-.16-.25-.32-.37-.49-.2-.27-.38-.55-.56-.84-.15-.25-.29-.51-.42-.77-.11-.2-.21-.4-.3-.61-.1-.23-.2-.46-.29-.7-.06-.17-.13-.34-.18-.52-.06-.17-.11-.35-.16-.53-.05-.18-.1-.36-.14-.54-.13-.54-.22-1.1-.27-1.67-.03-.38-.05-.76-.05-1.15s.02-.78.05-1.16c.02-.16.04-.32.06-.47.02-.17.04-.33.07-.49.03-.17.06-.32.09-.48.05-.22.1-.44.16-.65.08-.29.17-.58.27-.86.01-.07.04-.13.06-.19.09-.25.19-.5.3-.74.25-.58.55-1.13.88-1.65.15-.24.31-.48.48-.71.17-.22.34-.45.52-.66.19-.22.38-.43.58-.64.16-.16.31-.31.47-.46.18-.17.37-.34.56-.5.31-.25.63-.49.96-.72.46-.3.94-.58,1.44-.83.49-.24,1.01-.46,1.54-.64.29-.1.59-.19.89-.27.2-.06.4-.1.6-.14.15-.03.3-.06.46-.08.16-.03.32-.05.47-.07.15-.02.31-.04.47-.05.16-.01.32-.03.48-.03.21-.02.42-.03.64-.03.39,0,.77.02,1.15.06.68.06,1.34.18,1.98.34.2.05.4.1.59.17.39.12.78.26,1.15.42.19.07.37.16.55.25.18.08.36.17.54.28.26.14.51.29.76.45.16.1.33.21.48.32.23.16.46.33.67.51.04.03.08.07.12.09.22.19.44.38.64.58.12.11.24.23.35.35.2.2.39.41.57.63.16.19.32.38.47.58.2.28.4.57.58.86.14.22.27.44.39.67.36.66.67,1.37.9,2.1.07.2.12.4.18.61.06.21.11.43.16.65.03.16.06.31.09.48.03.16.05.32.07.49.02.15.04.31.06.47.03.38.05.77.05,1.16s-.02.77-.05,1.15c-.05.57-.14,1.13-.27,1.67-.04.18-.09.36-.14.54s-.1.36-.16.53c-.05.18-.11.35-.18.52h-.01Z"/>
        <ellipse class="cls-21" cx="71.6" cy="272.59" rx="12.5" ry="12.51"/>
        <polygon class="cls-17" points="63.21 267.85 80.54 276.18 79.97 277.35 62.65 269.02 63.21 267.85"/>
        <path class="cls-10" d="m93,295c-11,0-22,0-33,0,.33-.67.67-1.33,1-2h32v2Z"/>
        <path class="cls-25" d="m43,126h2v151c-.67.67-1.33,1.33-2,2,0-51,0-102,0-153Z"/>
        <path class="cls-19" d="m45,277c5.33,5.33,10.67,10.67,16,16-.33.67-.67,1.33-1,2-5.67-5.33-11.33-10.67-17-16,.67-.67,1.33-1.33,2-2Z"/>
      </g>
    </g>
  </g>
</svg>