<?xml version="1.0" encoding="UTF-8"?>
<svg id="_Слой_2" data-name="Слой 2" xmlns="http://www.w3.org/2000/svg" viewBox="0 0 204 204">
  <defs>
    <style>
      .cls-1 {
        fill: #4d4d4d;
      }

      .cls-1, .cls-2, .cls-3 {
        stroke-width: 0px;
      }

      .cls-2 {
        fill: #333;
      }

      .cls-4 {
        stroke-width: 2px;
      }

      .cls-4, .cls-5, .cls-6 {
        fill: none;
        stroke: #333;
        stroke-miterlimit: 10;
      }

      .cls-6 {
        stroke-width: 3px;
      }

      .cls-3 {
        fill: #051603;
      }
    </style>
  </defs>
  <g id="_Слой_1-2" data-name="Слой 1">
    <g>
      <g>
        <g>
          <rect class="cls-3" x="1.5" y="1.5" width="201" height="201" rx="8.5" ry="8.5"/>
          <path class="cls-2" d="m194,3c3.86,0,7,3.14,7,7v184c0,3.86-3.14,7-7,7H10c-3.86,0-7-3.14-7-7V10c0-3.86,3.14-7,7-7h184m0-3H10C4.48,0,0,4.48,0,10v184c0,5.52,4.48,10,10,10h184c5.52,0,10-4.48,10-10V10c0-5.52-4.48-10-10-10h0Z"/>
        </g>
        <g>
          <g>
            <path class="cls-1" d="m18.45,105.69c-1.53-31.09,14.04-59.07,38.46-74.81,15.15,23.55,30.29,47.11,45.44,70.67l83.9-4.14c1.53,31.09-14.04,59.07-38.46,74.81-11.96,7.71-26.06,12.48-41.3,13.23-46.33,2.29-85.75-33.42-88.04-79.76Z"/>
            <path class="cls-3" d="m57.1,31.21c11.96-7.71,26.06-12.48,41.3-13.23,46.33-2.29,85.75,33.42,88.04,79.76l-83.9,4.14c-15.15-23.55-30.29-47.11-45.44-70.67Z"/>
            <circle class="cls-6" cx="102" cy="102" r="84"/>
            <line class="cls-5" x1="102" y1="18" x2="102" y2="186"/>
            <line class="cls-5" x1="186" y1="102" x2="18" y2="102"/>
            <line class="cls-5" x1="144" y1="174.75" x2="60" y2="29.25"/>
            <line class="cls-5" x1="60" y1="174.75" x2="144" y2="29.25"/>
            <line class="cls-5" x1="29.25" y1="144" x2="174.75" y2="60"/>
            <line class="cls-5" x1="174.75" y1="144" x2="29.25" y2="60"/>
          </g>
          <circle class="cls-5" cx="102" cy="102" r="70.12"/>
          <circle class="cls-5" cx="102" cy="102" r="54.25"/>
          <ellipse class="cls-5" cx="102" cy="102" rx="39.24" ry="39.22"/>
          <ellipse class="cls-5" cx="102" cy="102" rx="26.71" ry="26.55"/>
          <ellipse class="cls-5" cx="102" cy="102" rx="13.96" ry="13.95"/>
        </g>
      </g>
      <g>
        <circle class="cls-4" cx="140.94" cy="130.81" r="13.25"/>
        <line class="cls-4" x1="140.94" y1="113.31" x2="140.94" y2="148.31"/>
        <line class="cls-4" x1="158.44" y1="130.81" x2="123.44" y2="130.81"/>
      </g>
      <g>
        <circle class="cls-4" cx="57.37" cy="102.08" r="13.25"/>
        <line class="cls-4" x1="57.37" y1="84.58" x2="57.37" y2="119.58"/>
        <line class="cls-4" x1="74.87" y1="102.08" x2="39.87" y2="102.08"/>
      </g>
    </g>
  </g>
</svg>