<?xml version="1.0" encoding="UTF-8"?>
<svg id="_Слой_2" preserveAspectRatio="none"  data-name="Слой 2" xmlns="http://www.w3.org/2000/svg" viewBox="0 0 68 88">
  <defs>
    <style>
      .cls-1 {
        stroke: #fff;
      }

      .cls-1, .cls-2 {
        fill: none;
        stroke-miterlimit: 10;
      }

      .cls-2 {
        stroke: #e21717;
      }
    </style>
  </defs>
  <g id="_Слой_21" data-name="Слой 21">
    <g>
      <g>
        <rect class="cls-1" x="24.5" y="3.5" width="1" height="1"/>
        <rect class="cls-1" x="42.5" y="3.5" width="1" height="1"/>
        <path class="cls-1" d="m67.5,74.5v10c-1.33,1-2.67,2-4,3H4.5c-1.33-1-2.67-2-4-3v-10c.67-.45,1.33-.89,2-1.33v-2.67l1-1v-4l-1-1v-7c-.33-1-.67-2-1-3h3v-3h4c-.67-1-1.33-2-2-3h-2v-3h3c.45.67.89,1.33,1.33,2h11.67v-2c-.33-1.33-.67-2.67-1-4h-1v-6h3v-4h5c1-2.67,2-5.33,3-8h-4c.33-.67.67-1.33,1-2h2l2-2-1-1h-2v-2h3v-1h-12l-2-2h15v-2h-4v-2h4v-3h-7v-2h7V.5h5v4h7v2h-7v3h4v2h-4v2h15l-2,2h-12v1h3v2h-2l-1,1,2,2h2c.33.67.67,1.33,1,2h-4c1,2.67,2,5.33,3,8h5v4h3v6h-1c-.33,1.33-.67,2.67-1,4v2h11.67c.44-.67.88-1.33,1.33-2h3v3h-2c-.67,1-1.33,2-2,3h4v3h3c-.33,1-.67,2-1,3v7l-1,1v4l1,1v2.67c.67.44,1.33.88,2,1.33Z"/>
      </g>
      <g>
        <rect class="cls-2" x="24.5" y="3.5" width="1" height="1"/>
        <rect class="cls-2" x="42.5" y="3.5" width="1" height="1"/>
        <path class="cls-2" d="m67.5,74.5v10c-1.33,1-2.67,2-4,3H4.5c-1.33-1-2.67-2-4-3v-10c.67-.45,1.33-.89,2-1.33v-2.67l1-1v-4l-1-1v-7c-.33-1-.67-2-1-3h3v-3h4c-.67-1-1.33-2-2-3h-2v-3h3c.45.67.89,1.33,1.33,2h11.67v-2c-.33-1.33-.67-2.67-1-4h-1v-6h3v-4h5c1-2.67,2-5.33,3-8h-4c.33-.67.67-1.33,1-2h2l2-2-1-1h-2v-2h3v-1h-12l-2-2h15v-2h-4v-2h4v-3h-7v-2h7V.5h5v4h7v2h-7v3h4v2h-4v2h15l-2,2h-12v1h3v2h-2l-1,1,2,2h2c.33.67.67,1.33,1,2h-4c1,2.67,2,5.33,3,8h5v4h3v6h-1c-.33,1.33-.67,2.67-1,4v2h11.67c.44-.67.88-1.33,1.33-2h3v3h-2c-.67,1-1.33,2-2,3h4v3h3c-.33,1-.67,2-1,3v7l-1,1v4l1,1v2.67c.67.44,1.33.88,2,1.33Z"/>
      </g>
    </g>
  </g>
</svg>