<?xml version="1.0" encoding="UTF-8"?>
<svg id="headTop" preserveAspectRatio="none" data-name="Слой 2" xmlns="http://www.w3.org/2000/svg" xmlns:xlink="http://www.w3.org/1999/xlink" viewBox="0 0 1980 86">
  <defs>
    <style>
      .cls-1 {
        fill: url(#_Безымянный_градиент_11);
      }

      .cls-1, .cls-2, .cls-3, .cls-4, .cls-5, .cls-6, .cls-7, .cls-8 {
        stroke-width: 0px;
      }

      .cls-2 {
        fill: url(#_Безымянный_градиент_22);
      }

      .cls-3 {
        fill: url(#_Безымянный_градиент_33);
      }

      .cls-4 {
        fill: url(#_Безымянный_градиент_44);
      }

      .cls-5 {
        fill: url(#_Безымянный_градиент_55);
      }

      .cls-6 {
        fill: url(#_Безымянный_градиент_66);
      }

      .cls-7 {
        fill: url(#_Безымянный_градиент_77);
      }

      .cls-8 {
        fill: url(#_Безымянный_градиент_88);
      }
    </style>
    <linearGradient id="_Безымянный_градиент_44" data-name="Безымянный градиент 190" x1="245" y1="34" x2="245" y2="48" gradientUnits="userSpaceOnUse">
      <stop offset="0" stop-color="#545454"/>
      <stop offset="1" stop-color="#2d2d2d"/>
    </linearGradient>
    <linearGradient id="_Безымянный_градиент_66" data-name="Безымянный градиент 190" x1="1735" x2="1735" y2="48" xlink:href="#_Безымянный_градиент_44"/>
    <linearGradient id="_Безымянный_градиент_55" data-name="Безымянный градиент 190" x1="990" y1="72" x2="990" y2="86" xlink:href="#_Безымянный_градиент_44"/>
    <linearGradient id="_Безымянный_градиент_88" data-name="Безымянный градиент 190" x1="1471" x2="1471" y2="86" xlink:href="#_Безымянный_градиент_44"/>
    <linearGradient id="_Безымянный_градиент_33" data-name="Безымянный градиент 190" x1="509" x2="509" y2="86" xlink:href="#_Безымянный_градиент_44"/>
    <linearGradient id="_Безымянный_градиент_77" data-name="Безымянный градиент 77" x1="990" y1="0" x2="990" y2="72" gradientUnits="userSpaceOnUse">
      <stop offset=".02" stop-color="#868686"/>
      <stop offset=".21" stop-color="#a7a7a7"/>
      <stop offset="1" stop-color="#efefef"/>
    </linearGradient>
    <linearGradient id="_Безымянный_градиент_22" data-name="Безымянный градиент 143" x1="990" y1="37" x2="990" y2="45.47" gradientUnits="userSpaceOnUse">
      <stop offset="0" stop-color="#717171"/>
      <stop offset=".01" stop-color="#6f6f6f"/>
      <stop offset=".24" stop-color="#555"/>
      <stop offset=".48" stop-color="#434343"/>
      <stop offset=".72" stop-color="#383838"/>
      <stop offset="1" stop-color="#353535"/>
    </linearGradient>
    <linearGradient id="_Безымянный_градиент_11" data-name="Безымянный градиент 143" y1="17" y2="25.47" xlink:href="#_Безымянный_градиент_22"/>
  </defs>
  <g id="_Слой_1-2" data-name="Слой 1">
    <g id="head_top">
      <g id="head_top_side">
        <rect class="cls-4" y="34" width="490" height="14"/>
        <rect class="cls-6" x="1490" y="34" width="490" height="14"/>
        <rect class="cls-5" x="528" y="72" width="924" height="14"/>
        <path class="cls-8" d="m1490,34c-12.67,12.67-25.33,25.33-38,38v14c12.67-12.67,25.33-25.33,38-38v-14Z"/>
        <path class="cls-3" d="m528,86c-12.67-12.67-25.33-25.33-38-38v-14c12.67,12.67,25.33,25.33,38,38v14Z"/>
      </g>
      <g id="head_top_top">
        <path class="cls-7" d="m0,0v34h490l38,38h924l38-38h490V0H0Zm1449.8,49.09c-1.25,1.19-2.94,1.91-4.8,1.91h-910c-1.86,0-3.54-.72-4.79-1.91-.05-.04-.11-.09-.16-.14-.94-.94-1.61-2.13-1.89-3.48.11-.16.23-.3.37-.44.63-.64,1.51-1.03,2.47-1.03h918c1.17,0,2.21.58,2.84,1.47-.3,1.41-1.02,2.67-2.04,3.62Zm-4.8-18.09h-910c-1.94,0-3.68-.78-4.95-2.05-.94-.94-1.61-2.13-1.89-3.48.11-.16.23-.3.37-.44.63-.64,1.51-1.03,2.47-1.03h918c1.17,0,2.21.58,2.84,1.47-.67,3.16-3.48,5.53-6.84,5.53Z"/>
        <path class="cls-2" d="m1452,44c0,.51-.05,1-.16,1.47-.63-.89-1.67-1.47-2.84-1.47h-918c-.96,0-1.84.39-2.47,1.03-.14.14-.26.28-.37.44-.11-.47-.16-.96-.16-1.47,0-3.87,3.13-7,7-7h910c1.94,0,3.68.78,4.95,2.05,1.27,1.27,2.05,3.01,2.05,4.95Z"/>
        <path class="cls-1" d="m1452,24c0,.51-.05,1-.16,1.47-.63-.89-1.67-1.47-2.84-1.47h-918c-.96,0-1.84.39-2.47,1.03-.14.14-.26.28-.37.44-.11-.47-.16-.96-.16-1.47,0-3.87,3.13-7,7-7h910c1.94,0,3.68.78,4.95,2.05,1.27,1.27,2.05,3.01,2.05,4.95Z"/>
      </g>
    </g>
  </g>
</svg>