<?xml version="1.0" encoding="UTF-8"?>
<svg id="frameLeft" preserveAspectRatio="none" data-name="1" xmlns="http://www.w3.org/2000/svg" xmlns:xlink="http://www.w3.org/1999/xlink" viewBox="0 0 93 912">
  <defs>
    <style>
      .cls-1 {
        fill: url(#_Безымянный_градиент_502-2);
      }

      .cls-1, .cls-2, .cls-3, .cls-4, .cls-5, .cls-6, .cls-7, .cls-8, .cls-9, .cls-10, .cls-11, .cls-12, .cls-13, .cls-14, .cls-15, .cls-16, .cls-17, .cls-18, .cls-19, .cls-20, .cls-21, .cls-22, .cls-23, .cls-24, .cls-25, .cls-26, .cls-27, .cls-28, .cls-29 {
        stroke-width: 0px;
      }

      .cls-2 {
        fill: url(#_Безымянный_градиент_163-2);
      }

      .cls-3 {
        fill: url(#_Безымянный_градиент_151-2);
      }

      .cls-4 {
        fill: url(#_Безымянный_градиент_502-3);
      }

      .cls-5 {
        fill: url(#_Безымянный_градиент_158);
      }

      .cls-6 {
        fill: url(#_Безымянный_градиент_152);
      }

      .cls-7 {
        fill: url(#_Безымянный_градиент_151);
      }

      .cls-8 {
        fill: url(#_Безымянный_градиент_153-3);
      }

      .cls-9 {
        fill: url(#_Безымянный_градиент_157-2);
      }

      .cls-10 {
        fill: url(#_Безымянный_градиент_502-4);
      }

      .cls-11 {
        fill: url(#_Безымянный_градиент_156);
      }

      .cls-12 {
        fill: url(#_Безымянный_градиент_161);
      }

      .cls-13 {
        fill: url(#_Безымянный_градиент_224);
      }

      .cls-14 {
        fill: url(#_Безымянный_градиент_153);
      }

      .cls-15 {
        fill: url(#_Безымянный_градиент_166);
      }

      .cls-16 {
        fill: url(#_Безымянный_градиент_156-2);
      }

      .cls-17 {
        fill: url(#_Безымянный_градиент_166-2);
      }

      .cls-18 {
        fill: url(#_Безымянный_градиент_153-2);
      }

      .cls-19 {
        fill: url(#_Безымянный_градиент_502-6);
      }

      .cls-20 {
        fill: url(#_Безымянный_градиент_163);
      }

      .cls-21 {
        fill: url(#_Безымянный_градиент_153-5);
      }

      .cls-22 {
        fill: url(#_Безымянный_градиент_152-2);
      }

      .cls-23 {
        fill: url(#_Безымянный_градиент_157);
      }

      .cls-24 {
        fill: url(#_Безымянный_градиент_502);
      }

      .cls-25 {
        fill: url(#_Безымянный_градиент_502-5);
      }

      .cls-26 {
        fill: url(#_Безымянный_градиент_153-4);
      }

      .cls-27 {
        fill: url(#_Безымянный_градиент_158-2);
      }

      .cls-28 {
        fill: url(#_Безымянный_градиент_162-2);
      }

      .cls-29 {
        fill: url(#_Безымянный_градиент_162);
      }
    </style>
    <linearGradient id="_Безымянный_градиент_162" data-name="Безымянный градиент 162" x1=".18" y1="456" x2="93.18" y2="456" gradientUnits="userSpaceOnUse">
      <stop offset="0" stop-color="#2d2d38"/>
      <stop offset=".51" stop-color="#3c3d4a"/>
      <stop offset="1" stop-color="#4d5160"/>
    </linearGradient>
    <linearGradient id="_Безымянный_градиент_151" data-name="Безымянный градиент 151" x1="42" y1="725" x2="42" y2="844" gradientTransform="translate(0 844) scale(1 -1)" gradientUnits="userSpaceOnUse">
      <stop offset=".04" stop-color="gray"/>
      <stop offset=".13" stop-color="#868686"/>
      <stop offset=".69" stop-color="#a7a7a7"/>
      <stop offset="1" stop-color="#b3b3b3"/>
    </linearGradient>
    <linearGradient id="_Безымянный_градиент_152" data-name="Безымянный градиент 152" x1="84.3" y1="802.96" x2="93.3" y2="802.96" gradientTransform="translate(0 844) scale(1 -1)" gradientUnits="userSpaceOnUse">
      <stop offset=".04" stop-color="gray"/>
      <stop offset=".1" stop-color="#8c8c8c"/>
      <stop offset=".21" stop-color="#9d9d9d"/>
      <stop offset=".36" stop-color="#aaa"/>
      <stop offset=".55" stop-color="#b1b1b1"/>
      <stop offset="1" stop-color="#b3b3b3"/>
    </linearGradient>
    <linearGradient id="_Безымянный_градиент_153" data-name="Безымянный градиент 153" x1="27.46" y1="724.76" x2="27.46" y2="717.76" gradientTransform="translate(0 844) scale(1 -1)" gradientUnits="userSpaceOnUse">
      <stop offset=".04" stop-color="gray"/>
      <stop offset=".1" stop-color="#8e8e8e"/>
      <stop offset=".2" stop-color="#9f9f9f"/>
      <stop offset=".33" stop-color="#aaa"/>
      <stop offset=".51" stop-color="#b1b1b1"/>
      <stop offset="1" stop-color="#b3b3b3"/>
    </linearGradient>
    <linearGradient id="_Безымянный_градиент_153-2" data-name="Безымянный градиент 153" x1="66.68" y1="745.7" x2="74.87" y2="739.18" xlink:href="#_Безымянный_градиент_153"/>
    <linearGradient id="_Безымянный_градиент_156" data-name="Безымянный градиент 156" x1="31.05" y1="755.57" x2="58.32" y2="796.33" gradientTransform="translate(0 844) scale(1 -1)" gradientUnits="userSpaceOnUse">
      <stop offset="0" stop-color="#e6e6e6"/>
      <stop offset=".18" stop-color="#e2e2e2"/>
      <stop offset=".34" stop-color="#d7d7d7"/>
      <stop offset=".5" stop-color="#c4c4c4"/>
      <stop offset=".65" stop-color="#aaa"/>
      <stop offset=".81" stop-color="#888"/>
      <stop offset=".93" stop-color="#666"/>
    </linearGradient>
    <radialGradient id="_Безымянный_градиент_157" data-name="Безымянный градиент 157" cx="44.13" cy="775.4" fx="30.09" fy="775.4" r="22.99" gradientTransform="translate(0 844.93) scale(1 -1)" gradientUnits="userSpaceOnUse">
      <stop offset="0" stop-color="#415975"/>
      <stop offset=".3" stop-color="#415873"/>
      <stop offset=".45" stop-color="#3f536b"/>
      <stop offset=".57" stop-color="#3c4c5e"/>
      <stop offset=".67" stop-color="#38414b"/>
      <stop offset=".76" stop-color="#333"/>
    </radialGradient>
    <linearGradient id="_Безымянный_градиент_158" data-name="Безымянный градиент 158" x1="24" y1="1028.95" x2="24" y2="861.95" gradientTransform="translate(0 -242.95)" gradientUnits="userSpaceOnUse">
      <stop offset="0" stop-color="#667787"/>
      <stop offset=".05" stop-color="#687989"/>
      <stop offset=".65" stop-color="#7c94a4"/>
      <stop offset="1" stop-color="#849eae"/>
    </linearGradient>
    <linearGradient id="_Безымянный_градиент_161" data-name="Безымянный градиент 161" x1="16" y1="553" x2="16" y2="551" gradientTransform="translate(0 844) scale(1 -1)" gradientUnits="userSpaceOnUse">
      <stop offset="0" stop-color="#fff" stop-opacity=".5"/>
      <stop offset=".03" stop-color="#fbfbfb" stop-opacity=".51"/>
      <stop offset=".18" stop-color="#f7f7f7" stop-opacity=".51"/>
      <stop offset=".33" stop-color="#ebebeb" stop-opacity=".51"/>
      <stop offset=".48" stop-color="#d8d8d8" stop-opacity=".51"/>
      <stop offset=".62" stop-color="#bcbcbc" stop-opacity=".5"/>
      <stop offset=".76" stop-color="#989898" stop-opacity=".5"/>
      <stop offset=".91" stop-color="#6e6e6e" stop-opacity=".5"/>
      <stop offset="1" stop-color="#4d4d4d" stop-opacity=".5"/>
    </linearGradient>
    <linearGradient id="_Безымянный_градиент_162-2" data-name="Безымянный градиент 162" x1=".06" y1="389" x2="32.06" y2="389" gradientTransform="translate(0 844) scale(1 -1)" xlink:href="#_Безымянный_градиент_162"/>
    <linearGradient id="_Безымянный_градиент_151-2" data-name="Безымянный градиент 151" x1="42" y1="403.59" x2="42" y2="522.59" gradientTransform="translate(0 389.41)" xlink:href="#_Безымянный_градиент_151"/>
    <linearGradient id="_Безымянный_градиент_152-2" data-name="Безымянный градиент 152" y1="481.59" y2="481.59" gradientTransform="translate(0 389.41)" xlink:href="#_Безымянный_градиент_152"/>
    <linearGradient id="_Безымянный_градиент_156-2" data-name="Безымянный градиент 156" x1="30.57" y1="433.94" x2="57.85" y2="474.7" gradientTransform="translate(0 389.41)" xlink:href="#_Безымянный_градиент_156"/>
    <radialGradient id="_Безымянный_градиент_157-2" data-name="Безымянный градиент 157" cx="43.65" cy="454.12" fx="29.61" fy="454.12" gradientTransform="translate(0 388.48)" xlink:href="#_Безымянный_градиент_157"/>
    <linearGradient id="_Безымянный_градиент_153-3" data-name="Безымянный градиент 153" x1="66.67" y1="813.83" x2="74.89" y2="807.29" gradientTransform="matrix(1,0,0,1,0,0)" xlink:href="#_Безымянный_градиент_153"/>
    <linearGradient id="_Безымянный_градиент_224" data-name="Безымянный градиент 224" x1="27.5" y1="792.76" x2="27.5" y2="785.76" gradientUnits="userSpaceOnUse">
      <stop offset=".04" stop-color="gray"/>
      <stop offset=".1" stop-color="#8e8e8e"/>
      <stop offset=".2" stop-color="#9f9f9f"/>
      <stop offset=".33" stop-color="#aaa"/>
      <stop offset=".51" stop-color="#b1b1b1"/>
      <stop offset="1" stop-color="#b3b3b3"/>
    </linearGradient>
    <linearGradient id="_Безымянный_градиент_163" data-name="Безымянный градиент 163" x1="16.57" y1="193.09" x2="27.05" y2="218.03" gradientTransform="translate(0 844) scale(1 -1)" gradientUnits="userSpaceOnUse">
      <stop offset="0" stop-color="#fff"/>
      <stop offset=".24" stop-color="#fdfdfd"/>
      <stop offset=".38" stop-color="#f5f5f5"/>
      <stop offset=".48" stop-color="#e7e7e7"/>
      <stop offset=".57" stop-color="#d4d4d4"/>
      <stop offset=".6" stop-color="#ccc"/>
      <stop offset=".67" stop-color="#b9b9b9"/>
      <stop offset=".8" stop-color="#9a9a9a"/>
      <stop offset=".92" stop-color="#878787"/>
      <stop offset=".99" stop-color="gray"/>
    </linearGradient>
    <linearGradient id="_Безымянный_градиент_153-4" data-name="Безымянный градиент 153" x1="19.41" y1="192.23" x2="23.38" y2="216.94" xlink:href="#_Безымянный_градиент_153"/>
    <linearGradient id="_Безымянный_градиент_166" data-name="Безымянный градиент 166" x1="209.99" y1="-229.33" x2="211.04" y2="-222.81" gradientTransform="translate(-94.86 475.06) rotate(25.65) scale(.84 -.43)" gradientUnits="userSpaceOnUse">
      <stop offset="0" stop-color="#1a1a1a"/>
      <stop offset=".43" stop-color="#121212"/>
      <stop offset=".99" stop-color="#000"/>
    </linearGradient>
    <linearGradient id="_Безымянный_градиент_502" data-name="Безымянный градиент 502" x1="16.5" y1="619" x2="16.5" y2="617" gradientUnits="userSpaceOnUse">
      <stop offset="0" stop-color="#fff"/>
      <stop offset=".33" stop-color="#7c94a4"/>
      <stop offset=".5" stop-color="#718696"/>
      <stop offset=".73" stop-color="#6a7c8c"/>
      <stop offset="1" stop-color="#687989"/>
      <stop offset="1" stop-color="#849eae"/>
    </linearGradient>
    <linearGradient id="_Безымянный_градиент_502-2" data-name="Безымянный градиент 502" x1="48" y1="709.5" x2="50" y2="709.5" xlink:href="#_Безымянный_градиент_502"/>
    <linearGradient id="_Безымянный_градиент_502-3" data-name="Безымянный градиент 502" x1="39.75" y1="626.75" x2="41.75" y2="624.75" xlink:href="#_Безымянный_градиент_502"/>
    <linearGradient id="_Безымянный_градиент_158-2" data-name="Безымянный градиент 158" x1="24" y1="1127.95" x2="24" y2="960.95" gradientTransform="translate(0 1253.95) scale(1 -1)" xlink:href="#_Безымянный_градиент_158"/>
    <linearGradient id="_Безымянный_градиент_163-2" data-name="Безымянный градиент 163" y1="94.09" x2="27.05" y2="119.03" gradientTransform="translate(0 167)" xlink:href="#_Безымянный_градиент_163"/>
    <linearGradient id="_Безымянный_градиент_153-5" data-name="Безымянный градиент 153" x1="19.41" y1="93.23" x2="23.38" y2="117.94" gradientTransform="translate(0 167)" xlink:href="#_Безымянный_градиент_153"/>
    <linearGradient id="_Безымянный_градиент_166-2" data-name="Безымянный градиент 166" x1="261.25" y1="-435.52" x2="262.3" y2="-429.01" gradientTransform="translate(-94.86 535.94) rotate(-25.65) scale(.84 .43)" xlink:href="#_Безымянный_градиент_166"/>
    <linearGradient id="_Безымянный_градиент_502-4" data-name="Безымянный градиент 502" x1="16.5" y1="718" x2="16.5" y2="716" gradientTransform="translate(0 1011) scale(1 -1)" xlink:href="#_Безымянный_градиент_502"/>
    <linearGradient id="_Безымянный_градиент_502-5" data-name="Безымянный градиент 502" x1="48" y1="808.5" x2="50" y2="808.5" gradientTransform="translate(0 1011) scale(1 -1)" xlink:href="#_Безымянный_градиент_502"/>
    <linearGradient id="_Безымянный_градиент_502-6" data-name="Безымянный градиент 502" x1="39.75" y1="725.75" x2="41.75" y2="723.75" gradientTransform="translate(0 1011) scale(1 -1)" xlink:href="#_Безымянный_градиент_502"/>
  </defs>
  <g id="_Слой_1-2" data-name="Слой 1">
    <g id="Side_Frame" data-name="Side Frame">
      <g id="Side_Frame_Left" data-name="Side Frame Left">
        <g>
          <g>
            <path class="cls-29" d="m0,78v41h50.03c11.29-13.66,22.58-27.33,33.87-41H0ZM0,0v78h84V0H0Z"/>
            <path class="cls-29" d="m84,78.09c3,1.33,6,2.67,9,4V0h-9v78.09Z"/>
            <path class="cls-29" d="m0,126h54.92c-1.67-2.34-3.33-4.66-4.99-7H0v7Z"/>
            <path class="cls-29" d="m84,78.09c-11.33,13.68-22.67,27.36-34,41.05,1.67,2.34,3.33,4.67,5,7.01,12.67-14.68,25.33-29.37,38-44.05-3-1.34-6-2.68-9-4.01Z"/>
            <ellipse class="cls-29" cx="44" cy="69.08" rx="24.5" ry="24.53"/>
            <ellipse class="cls-29" cx="44" cy="69.08" rx="17" ry="17.02"/>
          </g>
          <path class="cls-29" d="m31.96,619H0v16h47.94c-5.32-5.33-10.66-10.67-15.98-16Zm-31.96,16v151h48v-151H0Z"/>
          <rect class="cls-29" y="291" width="32" height="2"/>
          <rect class="cls-29" y="293" width="32" height="324"/>
          <path class="cls-29" d="m59.12,804c-.42-.51-.85-1.03-1.27-1.54-2.61-3.16-5.22-6.31-7.82-9.46H0v41h83.9c-8.27-10.01-16.52-20-24.78-30ZM0,834v78h84v-78H0Z"/>
          <path class="cls-29" d="m84,834c1.44-.7,2.94-1.4,4.5-2.09,1.53-.68,3.03-1.32,4.5-1.91v82h-9v-78Z"/>
          <ellipse class="cls-29" cx="43.52" cy="842.7" rx="24.5" ry="24.53"/>
          <ellipse class="cls-29" cx="43.52" cy="842.7" rx="17" ry="17.02"/>
          <path class="cls-29" d="m93,830c-3,1.33-6,2.67-9,4-11.33-13.67-22.67-27.33-34-41,1.67-2.33,3.33-4.67,5-7,12.67,14.67,25.33,29.33,38,44Z"/>
          <path class="cls-29" d="m0,786h55c-1.67,2.33-3.33,4.67-5,7H0v-7Z"/>
          <path class="cls-29" d="m34.16,635c-1.82-5.29-6.84-9.1-12.76-9.1s-10.94,3.8-12.76,9.1c-.48,1.38-.74,2.87-.74,4.42,0,7.47,6.04,13.52,13.5,13.52s13.5-6.06,13.5-13.53c0-1.54-.26-3.03-.74-4.41Zm-.28,5.05c0,.16-.02.32-.03.48,0,.16-.03.31-.05.47-.02.16-.04.32-.07.47-.02.16-.05.31-.08.46-.05.25-.11.49-.18.73-.08.29-.17.58-.27.86-.01.07-.04.13-.06.19-.09.25-.19.5-.3.74-.25.58-.55,1.13-.88,1.65-.15.24-.31.48-.48.71-.17.22-.34.45-.52.66-.19.22-.38.43-.58.64-.15.16-.31.31-.47.46-.18.17-.37.34-.56.5-.31.25-.63.49-.96.72-.33.22-.68.43-1.03.62-.35.19-.72.36-1.09.53-.29.12-.57.22-.86.32-.29.1-.59.19-.89.27-.2.06-.4.1-.6.14-.15.03-.3.06-.46.08-.16.03-.32.05-.47.07-.15.02-.31.04-.47.05-.16.01-.32.03-.48.03-.21.02-.42.03-.64.03-.39,0-.77-.02-1.15-.06-.19-.02-.38-.04-.57-.07-.14-.02-.27-.04-.41-.06-.23-.04-.46-.09-.69-.14-.19-.04-.37-.09-.54-.14-.18-.05-.36-.1-.53-.16-.23-.07-.46-.16-.68-.24-.05-.02-.1-.04-.15-.06-.24-.1-.47-.2-.7-.31-.18-.08-.36-.17-.54-.28-.22-.12-.44-.24-.65-.38-.2-.12-.4-.25-.59-.39-.14-.1-.27-.2-.4-.3-.24-.18-.47-.37-.69-.56-.04-.04-.08-.07-.12-.11-.2-.18-.39-.37-.57-.56-.4-.41-.77-.85-1.11-1.31-.07-.1-.14-.2-.21-.3-.27-.39-.52-.79-.74-1.22-.07-.12-.13-.24-.18-.36-.12-.23-.23-.47-.33-.72-.11-.26-.21-.53-.3-.81-.02-.04-.03-.08-.04-.12-.07-.2-.12-.4-.18-.61-.07-.24-.13-.48-.18-.73-.03-.15-.06-.3-.08-.46-.03-.15-.05-.31-.07-.47s-.04-.31-.05-.47c-.01-.16-.03-.32-.03-.48-.01-.21-.02-.42-.02-.64,0-.39.02-.77.05-1.15.05-.57.14-1.13.27-1.67.04-.18.09-.36.14-.54s.1-.36.16-.53c.05-.18.11-.35.18-.52h.01c.05-.15.11-.3.17-.45.63-1.5,1.54-2.84,2.68-3.98,2.26-2.26,5.39-3.66,8.84-3.66s6.58,1.4,8.84,3.66c.33.33.63.67.92,1.02.12.16.25.32.37.49.2.27.38.55.56.84.15.25.29.51.42.77.11.2.21.4.3.61.1.23.2.46.29.7.06.17.13.34.18.52.06.17.11.35.16.53s.1.36.14.54c.13.54.22,1.1.27,1.67.03.38.05.76.05,1.15,0,.22-.01.43-.02.64Z"/>
          <ellipse class="cls-29" cx="21.4" cy="639.41" rx="12.5" ry="12.51"/>
          <polygon class="cls-29" points="29.79 644.15 12.46 635.82 13.03 634.65 30.35 642.98 29.79 644.15"/>
          <path class="cls-29" d="m0,617h33c-.33.67-.67,1.33-1,2H0v-2Z"/>
          <path class="cls-29" d="m50,786h-2v-151c.67-.67,1.33-1.33,2-2v153Z"/>
          <path class="cls-29" d="m48,635c-5.33-5.33-10.67-10.67-16-16,.33-.67.67-1.33,1-2,5.67,5.33,11.33,10.67,17,16-.67.67-1.33,1.33-2,2Z"/>
          <path class="cls-29" d="m0,277v16h31.96s.03-.03.04-.04c5.31-5.32,10.63-10.64,15.94-15.96H0ZM0,126v151h48V126H0Z"/>
          <path class="cls-29" d="m21.4,259.06c-7.46,0-13.5,6.05-13.5,13.52,0,1.55.26,3.04.74,4.42,1.82,5.3,6.85,9.1,12.76,9.1s10.94-3.81,12.76-9.1c.48-1.38.74-2.87.74-4.41,0-7.47-6.04-13.53-13.5-13.53Zm11.41,18.64c-.09.21-.19.41-.3.61-.13.26-.27.52-.42.77-.18.29-.36.57-.56.84-.12.17-.25.33-.37.49-.29.35-.59.69-.92,1.02-2.26,2.26-5.39,3.66-8.84,3.66s-6.58-1.4-8.84-3.66c-1.14-1.14-2.05-2.48-2.68-3.98-.06-.15-.12-.3-.17-.45h-.01c-.07-.17-.13-.34-.18-.52-.06-.17-.11-.35-.16-.53s-.1-.36-.14-.54c-.13-.54-.22-1.1-.27-1.67-.03-.38-.05-.76-.05-1.15s.02-.78.05-1.16c.02-.16.04-.32.06-.47.02-.17.04-.33.07-.49.03-.17.06-.32.09-.48.05-.22.1-.44.16-.65.06-.21.11-.41.18-.61.23-.73.54-1.44.9-2.1.12-.23.25-.45.39-.67.18-.29.38-.58.58-.86.15-.2.31-.39.47-.58.17-.21.35-.41.55-.6.06-.07.12-.14.19-.2.09-.09.17-.18.26-.25.08-.09.17-.17.26-.24.17-.15.34-.3.52-.44.18-.15.37-.29.57-.43.19-.14.39-.27.59-.39.21-.14.43-.26.65-.38.18-.11.36-.2.54-.28.18-.09.36-.18.55-.25.37-.16.76-.3,1.15-.42.19-.07.39-.12.59-.17.64-.16,1.3-.28,1.98-.34.38-.04.76-.06,1.15-.06.22,0,.43.01.64.03.16,0,.32.02.48.03.16.01.32.03.47.05.15.02.31.04.47.07.16.02.31.05.46.08.2.04.4.08.6.14.3.08.6.17.89.27.53.18,1.05.4,1.54.64.5.25.98.53,1.44.83.33.23.65.47.96.72.19.16.38.33.56.5.16.15.32.3.47.46.2.21.39.42.58.64.18.21.35.44.52.66.17.23.33.47.48.71.33.52.63,1.07.88,1.65.11.24.21.49.3.74.02.06.05.12.06.19.1.28.19.57.27.86.06.21.11.43.16.65.03.16.06.31.09.48.03.16.05.32.07.49.02.15.04.31.06.47.03.38.05.77.05,1.16s-.02.77-.05,1.15c-.05.57-.14,1.13-.27,1.67-.04.18-.09.36-.14.54s-.1.36-.16.53c-.05.18-.12.35-.18.52-.09.24-.19.47-.29.7Z"/>
          <ellipse class="cls-29" cx="21.4" cy="272.59" rx="12.5" ry="12.51"/>
          <polygon class="cls-29" points="29.79 267.85 12.46 276.18 13.03 277.35 30.35 269.02 29.79 267.85"/>
          <path class="cls-29" d="m0,295h33c-.33-.67-.67-1.33-1-2H0v2Z"/>
          <path class="cls-29" d="m50,126h-2v151c.67.67,1.33,1.33,2,2V126Z"/>
          <path class="cls-29" d="m48,277c-5.33,5.33-10.67,10.67-16,16,.33.67.67,1.33,1,2,5.67-5.33,11.33-10.67,17-16-.67-.67-1.33-1.33-2-2Z"/>
        </g>
        <g>
          <g>
            <path class="cls-7" d="m0,78v41h50.03c11.29-13.66,22.58-27.33,33.87-41H0ZM0,0v78h84V0H0Z"/>
            <path class="cls-6" d="m84,78.09c3,1.33,6,2.67,9,4V0h-9v78.09Z"/>
            <path class="cls-14" d="m0,126h54.92c-1.67-2.34-3.33-4.66-4.99-7H0v7Z"/>
            <path class="cls-18" d="m84,78.09c-11.33,13.68-22.67,27.36-34,41.05,1.67,2.34,3.33,4.67,5,7.01,12.67-14.68,25.33-29.37,38-44.05-3-1.34-6-2.68-9-4.01Z"/>
            <ellipse class="cls-11" cx="44" cy="69.08" rx="24.5" ry="24.53"/>
            <ellipse class="cls-23" cx="44" cy="69.08" rx="17" ry="17.02"/>
          </g>
          <path class="cls-5" d="m31.96,619H0v16h47.94c-5.32-5.33-10.66-10.67-15.98-16Zm-31.96,16v151h48v-151H0Z"/>
          <rect class="cls-12" y="291" width="32" height="2"/>
          <rect class="cls-28" y="293" width="32" height="324"/>
          <path class="cls-3" d="m59.12,804c-.42-.51-.85-1.03-1.27-1.54-2.61-3.16-5.22-6.31-7.82-9.46H0v41h83.9c-8.27-10.01-16.52-20-24.78-30ZM0,834v78h84v-78H0Z"/>
          <path class="cls-22" d="m84,834c1.44-.7,2.94-1.4,4.5-2.09,1.53-.68,3.03-1.32,4.5-1.91v82h-9v-78Z"/>
          <ellipse class="cls-16" cx="43.52" cy="842.7" rx="24.5" ry="24.53"/>
          <ellipse class="cls-9" cx="43.52" cy="842.7" rx="17" ry="17.02"/>
          <path class="cls-8" d="m93,830c-3,1.33-6,2.67-9,4-11.33-13.67-22.67-27.33-34-41,1.67-2.33,3.33-4.67,5-7,12.67,14.67,25.33,29.33,38,44Z"/>
          <path class="cls-13" d="m0,786h55c-1.67,2.33-3.33,4.67-5,7H0v-7Z"/>
          <path class="cls-20" d="m34.16,635c-1.82-5.29-6.84-9.1-12.76-9.1s-10.94,3.8-12.76,9.1c-.48,1.38-.74,2.87-.74,4.42,0,7.47,6.04,13.52,13.5,13.52s13.5-6.06,13.5-13.53c0-1.54-.26-3.03-.74-4.41Zm-.28,5.05c0,.16-.02.32-.03.48,0,.16-.03.31-.05.47-.02.16-.04.32-.07.47-.02.16-.05.31-.08.46-.05.25-.11.49-.18.73-.08.29-.17.58-.27.86-.01.07-.04.13-.06.19-.09.25-.19.5-.3.74-.25.58-.55,1.13-.88,1.65-.15.24-.31.48-.48.71-.17.22-.34.45-.52.66-.19.22-.38.43-.58.64-.15.16-.31.31-.47.46-.18.17-.37.34-.56.5-.31.25-.63.49-.96.72-.33.22-.68.43-1.03.62-.35.19-.72.36-1.09.53-.29.12-.57.22-.86.32-.29.1-.59.19-.89.27-.2.06-.4.1-.6.14-.15.03-.3.06-.46.08-.16.03-.32.05-.47.07-.15.02-.31.04-.47.05-.16.01-.32.03-.48.03-.21.02-.42.03-.64.03-.39,0-.77-.02-1.15-.06-.19-.02-.38-.04-.57-.07-.14-.02-.27-.04-.41-.06-.23-.04-.46-.09-.69-.14-.19-.04-.37-.09-.54-.14-.18-.05-.36-.1-.53-.16-.23-.07-.46-.16-.68-.24-.05-.02-.1-.04-.15-.06-.24-.1-.47-.2-.7-.31-.18-.08-.36-.17-.54-.28-.22-.12-.44-.24-.65-.38-.2-.12-.4-.25-.59-.39-.14-.1-.27-.2-.4-.3-.24-.18-.47-.37-.69-.56-.04-.04-.08-.07-.12-.11-.2-.18-.39-.37-.57-.56-.4-.41-.77-.85-1.11-1.31-.07-.1-.14-.2-.21-.3-.27-.39-.52-.79-.74-1.22-.07-.12-.13-.24-.18-.36-.12-.23-.23-.47-.33-.72-.11-.26-.21-.53-.3-.81-.02-.04-.03-.08-.04-.12-.07-.2-.12-.4-.18-.61-.07-.24-.13-.48-.18-.73-.03-.15-.06-.3-.08-.46-.03-.15-.05-.31-.07-.47s-.04-.31-.05-.47c-.01-.16-.03-.32-.03-.48-.01-.21-.02-.42-.02-.64,0-.39.02-.77.05-1.15.05-.57.14-1.13.27-1.67.04-.18.09-.36.14-.54s.1-.36.16-.53c.05-.18.11-.35.18-.52h.01c.05-.15.11-.3.17-.45.63-1.5,1.54-2.84,2.68-3.98,2.26-2.26,5.39-3.66,8.84-3.66s6.58,1.4,8.84,3.66c.33.33.63.67.92,1.02.12.16.25.32.37.49.2.27.38.55.56.84.15.25.29.51.42.77.11.2.21.4.3.61.1.23.2.46.29.7.06.17.13.34.18.52.06.17.11.35.16.53s.1.36.14.54c.13.54.22,1.1.27,1.67.03.38.05.76.05,1.15,0,.22-.01.43-.02.64Z"/>
          <ellipse class="cls-26" cx="21.4" cy="639.41" rx="12.5" ry="12.51"/>
          <polygon class="cls-15" points="29.79 644.15 12.46 635.82 13.03 634.65 30.35 642.98 29.79 644.15"/>
          <path class="cls-24" d="m0,617h33c-.33.67-.67,1.33-1,2H0v-2Z"/>
          <path class="cls-1" d="m50,786h-2v-151c.67-.67,1.33-1.33,2-2v153Z"/>
          <path class="cls-4" d="m48,635c-5.33-5.33-10.67-10.67-16-16,.33-.67.67-1.33,1-2,5.67,5.33,11.33,10.67,17,16-.67.67-1.33,1.33-2,2Z"/>
          <path class="cls-27" d="m0,277v16h31.96s.03-.03.04-.04c5.31-5.32,10.63-10.64,15.94-15.96H0ZM0,126v151h48V126H0Z"/>
          <path class="cls-2" d="m21.4,259.06c-7.46,0-13.5,6.05-13.5,13.52,0,1.55.26,3.04.74,4.42,1.82,5.3,6.85,9.1,12.76,9.1s10.94-3.81,12.76-9.1c.48-1.38.74-2.87.74-4.41,0-7.47-6.04-13.53-13.5-13.53Zm11.41,18.64c-.09.21-.19.41-.3.61-.13.26-.27.52-.42.77-.18.29-.36.57-.56.84-.12.17-.25.33-.37.49-.29.35-.59.69-.92,1.02-2.26,2.26-5.39,3.66-8.84,3.66s-6.58-1.4-8.84-3.66c-1.14-1.14-2.05-2.48-2.68-3.98-.06-.15-.12-.3-.17-.45h-.01c-.07-.17-.13-.34-.18-.52-.06-.17-.11-.35-.16-.53s-.1-.36-.14-.54c-.13-.54-.22-1.1-.27-1.67-.03-.38-.05-.76-.05-1.15s.02-.78.05-1.16c.02-.16.04-.32.06-.47.02-.17.04-.33.07-.49.03-.17.06-.32.09-.48.05-.22.1-.44.16-.65.06-.21.11-.41.18-.61.23-.73.54-1.44.9-2.1.12-.23.25-.45.39-.67.18-.29.38-.58.58-.86.15-.2.31-.39.47-.58.17-.21.35-.41.55-.6.06-.07.12-.14.19-.2.09-.09.17-.18.26-.25.08-.09.17-.17.26-.24.17-.15.34-.3.52-.44.18-.15.37-.29.57-.43.19-.14.39-.27.59-.39.21-.14.43-.26.65-.38.18-.11.36-.2.54-.28.18-.09.36-.18.55-.25.37-.16.76-.3,1.15-.42.19-.07.39-.12.59-.17.64-.16,1.3-.28,1.98-.34.38-.04.76-.06,1.15-.06.22,0,.43.01.64.03.16,0,.32.02.48.03.16.01.32.03.47.05.15.02.31.04.47.07.16.02.31.05.46.08.2.04.4.08.6.14.3.08.6.17.89.27.53.18,1.05.4,1.54.64.5.25.98.53,1.44.83.33.23.65.47.96.72.19.16.38.33.56.5.16.15.32.3.47.46.2.21.39.42.58.64.18.21.35.44.52.66.17.23.33.47.48.71.33.52.63,1.07.88,1.65.11.24.21.49.3.74.02.06.05.12.06.19.1.28.19.57.27.86.06.21.11.43.16.65.03.16.06.31.09.48.03.16.05.32.07.49.02.15.04.31.06.47.03.38.05.77.05,1.16s-.02.77-.05,1.15c-.05.57-.14,1.13-.27,1.67-.04.18-.09.36-.14.54s-.1.36-.16.53c-.05.18-.12.35-.18.52-.09.24-.19.47-.29.7Z"/>
          <ellipse class="cls-21" cx="21.4" cy="272.59" rx="12.5" ry="12.51"/>
          <polygon class="cls-17" points="29.79 267.85 12.46 276.18 13.03 277.35 30.35 269.02 29.79 267.85"/>
          <path class="cls-10" d="m0,295h33c-.33-.67-.67-1.33-1-2H0v2Z"/>
          <path class="cls-25" d="m50,126h-2v151c.67.67,1.33,1.33,2,2V126Z"/>
          <path class="cls-19" d="m48,277c-5.33,5.33-10.67,10.67-16,16,.33.67.67,1.33,1,2,5.67-5.33,11.33-10.67,17-16-.67-.67-1.33-1.33-2-2Z"/>
        </g>
      </g>
    </g>
  </g>
</svg>