<?xml version="1.0" encoding="UTF-8"?>
<svg id="_Слой_2" data-name="Слой 2" xmlns="http://www.w3.org/2000/svg" xmlns:xlink="http://www.w3.org/1999/xlink" viewBox="0 0 934 337.88">
  <defs>
    <style>
      .cls-1, .cls-2, .cls-3 {
        stroke-width: 0px;
      }

      .cls-2 {
        fill: url(#_Безымянный_градиент_124);
      }

      .cls-3 {
        fill: url(#_Безымянный_градиент_88);
      }
    </style>
    <linearGradient id="_Безымянный_градиент_124" data-name="Безымянный градиент 124" x1="467" y1="0" x2="467" y2="200.11" gradientUnits="userSpaceOnUse">
      <stop offset=".02" stop-color="#868686"/>
      <stop offset=".21" stop-color="#a7a7a7"/>
      <stop offset="1" stop-color="#efefef"/>
    </linearGradient>
    <linearGradient id="_Безымянный_градиент_88" data-name="Безымянный градиент 88" x1="462.61" y1="337.88" x2="462.61" y2="206.75" gradientUnits="userSpaceOnUse">
      <stop offset=".02" stop-color="#868686"/>
      <stop offset=".05" stop-color="#939393"/>
      <stop offset=".1" stop-color="#a2a2a2"/>
      <stop offset=".15" stop-color="#a7a7a7"/>
      <stop offset=".18" stop-color="#b3b3b3"/>
      <stop offset=".25" stop-color="#c9c9c9"/>
      <stop offset=".34" stop-color="#dadada"/>
      <stop offset=".44" stop-color="#e6e6e6"/>
      <stop offset=".59" stop-color="#ededed"/>
      <stop offset="1" stop-color="#efefef"/>
    </linearGradient>
  </defs>
  <g id="_Слой_1-2" data-name="Слой 1">
    <g id="_Слой_23" data-name="Слой 23">
      <g>
        <path id="path2987" class="cls-2" d="m446,0v38.45h-1.48c-1.22,0-2.19.98-2.19,2.17v1.42h-4.77v6.64h.9v3.4h-1.81v7.14h1.81v3.4h-4.19v8.4h2.19v11.11h-4.23v3.05h-21.65v.16h21.65v19.54h-8.81v.13h8.81v4.66h-9.07v-2.27h8.81v-.13h-8.81v-2.39h-.13v4.78h-.13v1.16h9.32v4.37h-3.16v.13h3.16v2.27h-3.42v-2.39h-.13v5.22h-.06v1.13h3.61v3.37h-3.03v.13h3.03v2.27h-3.29v-2.39h-.13v5.51h-1.36v.72h4.77v21.84h-16.65l-.29-1.42c-.44-.51-.99-.89-1.61-1.23l5.84-4.31-.55-.72s-4.81,3.16-6.94,4.37c-2.08-.63-4.66-.79-7.39-.79l-.06,1.89h-5.81v2.2h-29.58v-13.34h-10.39v-22.5h10.39v-4.06h-4.16v-2.52h-1.81v2.52h-4.42v-6.32h2.61v-.76h-3.9v-11.14h5.97v-3.3h-5.97v-2.33c1.11-.46,1.81-1.16,1.81-1.95v-3.81c0-1.4-2.17-2.52-4.9-2.52h-2.61V24.26h-.77v53.14h-3.9v3.56h-1.03c-2.73,0-4.9,1.12-4.9,2.52v3.81c0,.85.81,1.59,2.06,2.05v2.23h-18.94v3.3h18.68v11.14h-10.61l-3.94-3.56c-.58-.94-1.68-1.56-5.68-.5l-11.42,9.12c-1.4,1.46-1.04,2.26-.52,3.02l15.55,12.27v17.08h-14v-7.08h.52v-4.31h-9.07v-11.14h-1.06v11.14h-1.03c-4.74,0-8.55,1-8.55,2.27v18.66h-11.42v-2.96h-26.97v2.96h-4.16v10.79l-12.91.03v-3.05h-26.97v3.15l-48.23.16c-1.33,4.49,1.56,10.16-9.45,9.25H0l.52,16.71c.35,5.4,2.08,9.42,7.78,9.6l909.09.5c.83-18.08,9.11-28.89,16.62-40.46-21.65.45-69.19,3.48-127.89,6.36v-3.74h-2.58v3.87c-.74.04-1.45.06-2.19.09v-.03h-8.81v-3.56h-.35v3.56h-3.68v-3.56h-.74v3.56h-8.81v1.07c-20.86.93-42.74,1.82-65.14,2.52h-19.07v-1.42h-54.3v1.42h-9.71v-3.59h-10.65v3.59h-1.84v1.67c-9.49,0-18.95-.04-28.29-.16l-.52-8.62-15.78.06v-10.82h-54.3v10.98l-22.94.09v-30.77h-29.36v-2.14h29.75c.81,0,1.45-.65,1.45-1.45v-12.14c0-.34-.12-.67-.32-.91h2.36v-.35h-2.81c-.21-.11-.42-.19-.68-.19v-1.42h-11.42c.03-.11.03-.26.03-.38v-1.79c0-.79-.64-1.42-1.45-1.42h-8.45c-.81,0-1.45.62-1.45,1.42v1.79c0,.12,0,.26.03.38h-.03v1.42h-7v-32.03h2.39v.53h2.39v-.53h12.49v-.16h-12.49v-2.33h1.65v-3.24h-1.65v-2.49h-.16v-3.93h-3.32v4.28h1.1v2.14h-14.68v-6.26h2.39v-8.4h-4.58v-3.4h3.48v-7.14h-3.48v-3.4h1.29v-6.64h-5.52v-1.42c0-1.19-.97-2.17-2.19-2.17V0h-.16,0Zm-60.75,152.97l11.2-.38-.35-1.79c-.44-.51-.99-.89-1.61-1.23l5.84-4.31-.55-.72s-4.81,3.16-6.94,4.37c-2.08-.63-4.66-.79-7.39-.79l-.19,4.85Zm-36.55-122.14v.79h1.55v-.79h-1.55Zm76.01,45.21v5.35h11.2v-5.35h-11.2Zm30.07,4.47h14.68v2.33h-2.39v-.72h-12.29v-1.6Zm14.13,4.81v6.64h3.87v-6.64h-3.87Zm-40.1,32.38h3.42v2.71h-3.42v-2.71Zm70.2,4.12v10.04h7.32v-10.04h-7.32Zm-70.07,5.6h3.29v2.99h-3.29v-2.99Zm81.82,9.44l.35,14.13h56.52l2.74-.19-.87-1.29.32.06s-.22-1.15-.39-1.95l4.61-.22-.1-.82,37.33.13.35-2.17-38.04-.69-.1-.72-5-.16c-.04-.24-.14-.78-.16-.91-.16-1.12-2.52-.39-3.94-.22l-.84-1.23-30.81-3.56-22-.19h0Zm-227.19.25l-3.1,1.26-.94,2.74-.35-.98-12.16,1.54h-7.84l-.48,1.07-.94.09-27.87.35.26,1.26,26.16.16-2.29,4.66h28.52l-.45-1.26h2.26v-6.04l1.06-.03-1.84-4.81Zm-44.04,10.73l-3.1,1.26-.94,2.74-.35-.98-12.16,1.54h-7.84l-.48,1.07-.94.09-27.87.35.26,1.26,26.16.16-2.29,4.66h28.52l-.45-1.26h2.26v-6.04l1.06-.03-1.84-4.81Zm392.31,5.47l.35,14.13h56.52l2.74-.19-.87-1.29.32.06s-.22-1.15-.39-1.95l4.61-.22-.1-.82,37.33.13.35-2.17-38.04-.69-.1-.72-5-.16c-.04-.24-.14-.78-.16-.91-.16-1.12-2.52-.39-3.94-.22l-.84-1.23-30.81-3.56-22-.19h0Zm182.7,9.66v2.14h4.03v-2.14h-4.03Z"/>
        <g>
          <rect class="cls-3" x="8.11" y="206.75" width="909" height="131.13"/>
          <g>
            <path class="cls-1" d="m59.29,301.87v-64.15h27.07v64.15h-27.07Zm31.36,0v-12.81h20.09v-13.68h-20.09v-11.17h20.09v-13.68h-20.09v-12.81h31.42l16.29,12.81v13.05l-8.15,6.43,8.15,6.43v12.62l-16.29,12.81h-31.42Z"/>
            <path class="cls-1" d="m141.78,301.87l29.03-61.25,12,25.48-14.88,35.77h-26.15Zm63.39,0l-3.43-7.01h-26.58l5.63-12.71h14.7l-21.74-44.42h26.4l32.4,64.15h-27.38Z"/>
            <path class="cls-1" d="m224.95,251.69v-13.97h70.55v13.97h-70.55Zm21.19,50.18v-46.84h28.17v46.84h-28.17Z"/>
            <path class="cls-1" d="m305.85,251.69v-13.97h70.55v13.97h-70.55Zm21.19,50.18v-46.84h28.17v46.84h-28.17Z"/>
            <path class="cls-1" d="m386.76,301.87v-64.15h27.07v64.15h-27.07Zm31.36,0v-12.81h13.41v-8.12h24.56v20.93h-37.97Z"/>
            <path class="cls-1" d="m468.21,301.87v-64.15h27.07v25.43h25.9v12.38h-25.9v26.35h-27.07Zm48.2-45.58v-6.14h-16.84v-12.42h42.32v18.56h-25.48Zm-16.84,45.58v-12.81h15.25v-6.43h27.07v19.24h-42.32Z"/>
            <path class="cls-1" d="m603.74,301.87v-24.02h-35.15l-16.29-12.86v-14.45l16.29-12.81h9.19v22.77h37.36l15.74,12.86v15.71l-16.23,12.81h-10.9Zm-37.79,0l-13.66-12.81v-6.43h27.07v7.64h20.09v11.6h-33.5Zm37.79-46.16v-6.43h-21.68v-11.55h32.52l14.09,11.17v6.82h-24.93Z"/>
            <path class="cls-1" d="m643.18,301.87v-64.15h27.07v64.15h-27.07Zm51.45,0v-26.06h-20.09v-12.86h19.9v-25.23h27.32v64.15h-27.13Z"/>
            <path class="cls-1" d="m734.37,301.87v-13.68h8.15v-36.83h-8.15v-13.63h43.36v13.63h-8.15v36.83h8.15v13.68h-43.36Z"/>
            <path class="cls-1" d="m790.84,301.87v-64.15h26.58v64.15h-26.58Zm30.87-16.48v-12.86h19.66v-21.99h-19.66v-12.81h30.38l16.23,12.81v21.99l-16.23,12.86h-30.38Z"/>
          </g>
        </g>
      </g>
    </g>
  </g>
</svg>