<?xml version="1.0" encoding="UTF-8"?>
<svg id="_Слой_2" data-name="Слой 2" xmlns="http://www.w3.org/2000/svg" xmlns:xlink="http://www.w3.org/1999/xlink" viewBox="0 0 1140 540">
  <defs>
    <style>
      .cls-1 {
        fill: url(#_Безымянный_градиент_163-4);
      }

      .cls-1, .cls-2, .cls-3, .cls-4, .cls-5, .cls-6, .cls-7, .cls-8, .cls-9, .cls-10, .cls-11, .cls-12, .cls-13, .cls-14, .cls-15, .cls-16, .cls-17, .cls-18, .cls-19, .cls-20, .cls-21, .cls-22, .cls-23, .cls-24, .cls-25 {
        stroke-width: 0px;
      }

      .cls-2 {
        fill: url(#_Безымянный_градиент_163-2);
      }

      .cls-3 {
        fill: #05f2ff;
      }

      .cls-4 {
        fill: url(#_Безымянный_градиент_17-2);
      }

      .cls-5 {
        fill: url(#_Безымянный_градиент_163-3);
      }

      .cls-6 {
        fill: url(#_Безымянный_градиент_18-2);
      }

      .cls-7 {
        fill: url(#_Безымянный_градиент_153-3);
      }

      .cls-9 {
        fill: url(#_Безымянный_градиент_218);
      }

      .cls-10 {
        fill: url(#_Безымянный_градиент_18);
      }

      .cls-11 {
        fill: url(#_Безымянный_градиент_163-8);
      }

      .cls-12 {
        fill: url(#_Безымянный_градиент_153-7);
      }

      .cls-13 {
        fill: url(#_Безымянный_градиент_153-8);
      }

      .cls-14 {
        fill: url(#_Безымянный_градиент_153);
      }

      .cls-26 {
        letter-spacing: 0em;
      }

      .cls-15 {
        fill: url(#_Безымянный_градиент_163-6);
      }

      .cls-16 {
        fill: url(#_Безымянный_градиент_153-2);
      }

      .cls-17 {
        fill: url(#_Безымянный_градиент_218-2);
      }

      .cls-18 {
        fill: url(#_Безымянный_градиент_153-6);
      }

      .cls-19 {
        fill: url(#_Безымянный_градиент_163);
      }

      .cls-27 {
        font-size: 23.78px;
      }

      .cls-27, .cls-28 {
        font-family: BlackOpsOne-Regular, 'Black Ops One';
      }

      .cls-20 {
        fill: url(#_Безымянный_градиент_17);
      }

      .cls-21 {
        fill: url(#_Безымянный_градиент_153-5);
      }

      .cls-22 {
        fill: #ff3615;
      }

      .cls-23 {
        fill: url(#_Безымянный_градиент_163-5);
      }

      .cls-24 {
        fill: url(#_Безымянный_градиент_163-7);
      }

      .cls-28 {
        font-size: 24.66px;
      }

      .cls-25 {
        fill: url(#_Безымянный_градиент_153-4);
      }

      .cls-29 {
        letter-spacing: -.06em;
      }
    </style>
    <linearGradient id="_Безымянный_градиент_218" data-name="Безымянный градиент 218" x1="1130" y1="170" x2="600" y2="-360" gradientTransform="translate(0 170) scale(1 -1)" gradientUnits="userSpaceOnUse">
      <stop offset="0" stop-color="#849eae"/>
      <stop offset=".35" stop-color="#7c94a4"/>
      <stop offset=".95" stop-color="#687989"/>
      <stop offset="1" stop-color="#667787"/>
    </linearGradient>
    <linearGradient id="_Безымянный_градиент_17" data-name="Безымянный градиент 17" x1="1130.02" y1="270" x2="1140.02" y2="270" gradientUnits="userSpaceOnUse">
      <stop offset="0" stop-color="#333342"/>
      <stop offset=".14" stop-color="#40404b"/>
      <stop offset=".44" stop-color="#55555a"/>
      <stop offset=".73" stop-color="#626263"/>
      <stop offset="1" stop-color="#666"/>
    </linearGradient>
    <linearGradient id="_Безымянный_градиент_18" data-name="Безымянный градиент 18" x1="870" y1="530" x2="870" y2="540" gradientUnits="userSpaceOnUse">
      <stop offset="0" stop-color="#4d5160"/>
      <stop offset=".01" stop-color="#4b4e5d"/>
      <stop offset=".13" stop-color="#3d3f4c"/>
      <stop offset=".26" stop-color="#343541"/>
      <stop offset=".46" stop-color="#2e2f3a"/>
      <stop offset="1" stop-color="#2d2d38"/>
    </linearGradient>
    <linearGradient id="_Безымянный_градиент_153" data-name="Безымянный градиент 153" x1="618.22" y1="10.56" x2="620.78" y2="26.44" gradientUnits="userSpaceOnUse">
      <stop offset=".04" stop-color="gray"/>
      <stop offset=".1" stop-color="#8e8e8e"/>
      <stop offset=".2" stop-color="#9f9f9f"/>
      <stop offset=".33" stop-color="#aaa"/>
      <stop offset=".51" stop-color="#b1b1b1"/>
      <stop offset="1" stop-color="#b3b3b3"/>
    </linearGradient>
    <linearGradient id="_Безымянный_градиент_163" data-name="Безымянный градиент 163" x1="616.11" y1="10.43" x2="623.47" y2="27.95" gradientUnits="userSpaceOnUse">
      <stop offset="0" stop-color="#fff"/>
      <stop offset=".24" stop-color="#fdfdfd"/>
      <stop offset=".38" stop-color="#f5f5f5"/>
      <stop offset=".48" stop-color="#e7e7e7"/>
      <stop offset=".57" stop-color="#d4d4d4"/>
      <stop offset=".6" stop-color="#ccc"/>
      <stop offset=".67" stop-color="#b9b9b9"/>
      <stop offset=".8" stop-color="#9a9a9a"/>
      <stop offset=".92" stop-color="#878787"/>
      <stop offset=".99" stop-color="gray"/>
    </linearGradient>
    <linearGradient id="_Безымянный_градиент_153-2" data-name="Безымянный градиент 153" y1="503.56" x2="620.78" y2="519.44" xlink:href="#_Безымянный_градиент_153"/>
    <linearGradient id="_Безымянный_градиент_163-2" data-name="Безымянный градиент 163" y1="503.43" x2="623.47" y2="520.95" xlink:href="#_Безымянный_градиент_163"/>
    <linearGradient id="_Безымянный_градиент_153-3" data-name="Безымянный градиент 153" x1="1111.22" y1="503.56" x2="1113.78" y2="519.44" xlink:href="#_Безымянный_градиент_153"/>
    <linearGradient id="_Безымянный_градиент_163-3" data-name="Безымянный градиент 163" x1="1109.11" y1="503.43" x2="1116.47" y2="520.95" xlink:href="#_Безымянный_градиент_163"/>
    <linearGradient id="_Безымянный_градиент_153-4" data-name="Безымянный градиент 153" x1="1111.22" y1="10.56" x2="1113.78" y2="26.44" xlink:href="#_Безымянный_градиент_153"/>
    <linearGradient id="_Безымянный_градиент_163-4" data-name="Безымянный градиент 163" x1="1109.11" y1="10.43" x2="1116.47" y2="27.95" xlink:href="#_Безымянный_градиент_163"/>
    <linearGradient id="_Безымянный_градиент_218-2" data-name="Безымянный градиент 218" x1="265" x2="265" y2="-360" xlink:href="#_Безымянный_градиент_218"/>
    <linearGradient id="_Безымянный_градиент_17-2" data-name="Безымянный градиент 17" x1="530.02" x2="540.02" xlink:href="#_Безымянный_градиент_17"/>
    <linearGradient id="_Безымянный_градиент_18-2" data-name="Безымянный градиент 18" x1="270" x2="270" xlink:href="#_Безымянный_градиент_18"/>
    <linearGradient id="_Безымянный_градиент_153-5" data-name="Безымянный градиент 153" x1="17.22" y1="10.56" x2="19.78" y2="26.44" xlink:href="#_Безымянный_градиент_153"/>
    <linearGradient id="_Безымянный_градиент_163-5" data-name="Безымянный градиент 163" x1="15.11" y1="10.43" x2="22.47" y2="27.95" xlink:href="#_Безымянный_градиент_163"/>
    <linearGradient id="_Безымянный_градиент_153-6" data-name="Безымянный градиент 153" x1="17.22" y1="503.56" x2="19.78" y2="519.44" xlink:href="#_Безымянный_градиент_153"/>
    <linearGradient id="_Безымянный_градиент_163-6" data-name="Безымянный градиент 163" x1="15.11" y1="503.43" x2="22.47" y2="520.95" xlink:href="#_Безымянный_градиент_163"/>
    <linearGradient id="_Безымянный_градиент_153-7" data-name="Безымянный градиент 153" x1="510.22" y1="503.56" x2="512.78" y2="519.44" xlink:href="#_Безымянный_градиент_153"/>
    <linearGradient id="_Безымянный_градиент_163-7" data-name="Безымянный градиент 163" x1="508.11" y1="503.43" x2="515.47" y2="520.95" xlink:href="#_Безымянный_градиент_163"/>
    <linearGradient id="_Безымянный_градиент_153-8" data-name="Безымянный градиент 153" x1="510.22" y1="10.56" x2="512.78" y2="26.44" xlink:href="#_Безымянный_градиент_153"/>
    <linearGradient id="_Безымянный_градиент_163-8" data-name="Безымянный градиент 163" x1="508.11" x2="515.47" xlink:href="#_Безымянный_градиент_163"/>
  </defs>
  <g id="_Слой_1-2" data-name="Слой 1">
    <g id="Game_Board" data-name="Game Board">
      <g id="Right_Board" data-name="Right Board">
        <g id="Frame">
          <path class="cls-9" d="m600,0v530h530V0h-530Zm495,495h-460V35h460v460Z"/>
          <path class="cls-20" d="m1140,540c-3.33-3.33-6.67-6.67-10-10V0c3.33,3.33,6.67,6.67,10,10v530Z"/>
          <path class="cls-10" d="m609.63,540h530.37c-3.33-3.33-6.67-6.67-10-10h-530c3.21,3.33,6.42,6.67,9.63,10Z"/>
          <g id="Screw">
            <circle class="cls-14" cx="619.5" cy="18.5" r="8.04"/>
            <circle class="cls-19" cx="619.5" cy="18.5" r="9.5"/>
            <rect class="cls-8" x="612.92" y="17.77" width="13.15" height="1.46" transform="translate(43.17 246.45) rotate(-23.29)"/>
          </g>
          <g id="Screw-2" data-name="Screw">
            <circle class="cls-16" cx="619.5" cy="511.5" r="8.04"/>
            <circle class="cls-2" cx="619.5" cy="511.5" r="9.5"/>
            <rect class="cls-8" x="612.92" y="510.77" width="13.15" height="1.46" transform="translate(-34.39 44.77) rotate(-4.03)"/>
          </g>
          <g id="Screw-3" data-name="Screw">
            <circle class="cls-7" cx="1112.5" cy="511.5" r="8.04"/>
            <circle class="cls-5" cx="1112.5" cy="511.5" r="9.5"/>
            <rect class="cls-8" x="1105.92" y="510.77" width="13.15" height="1.46" transform="translate(-88.69 749.03) rotate(-35.88)"/>
          </g>
          <g id="Screw-4" data-name="Screw">
            <circle class="cls-25" cx="1112.5" cy="18.5" r="8.04"/>
            <circle class="cls-1" cx="1112.5" cy="18.5" r="9.5"/>
            <rect class="cls-8" x="1111.77" y="11.92" width="1.46" height="13.15" transform="translate(45.56 334.17) rotate(-17.43)"/>
          </g>
          <g id="_Слой_13_копия_" data-name="Слой 13 (копия)">
            <g id="_Слой_10_копия_" data-name="Слой 10 (копия)">
              <text class="cls-27" transform="translate(651 23.59) scale(1.03 1)"><tspan x="0" y="0">1</tspan></text>
              <text class="cls-27" transform="translate(697 23.59) scale(.82 1)"><tspan x="0" y="0">2</tspan></text>
              <text class="cls-27" transform="translate(743 23.59) scale(.82 1)"><tspan x="0" y="0">3</tspan></text>
              <text class="cls-27" transform="translate(789 23.59) scale(.82 1)"><tspan x="0" y="0">4</tspan></text>
              <text class="cls-27" transform="translate(835 23.59) scale(.82 1)"><tspan x="0" y="0">5</tspan></text>
              <text class="cls-27" transform="translate(881 23.59) scale(.82 1)"><tspan x="0" y="0">6</tspan></text>
              <text class="cls-27" transform="translate(927 23.59) scale(.82 1)"><tspan x="0" y="0">7</tspan></text>
              <text class="cls-27" transform="translate(973 23.59) scale(.82 1)"><tspan x="0" y="0">8</tspan></text>
              <text class="cls-27" transform="translate(1019 23.59) scale(.82 1)"><tspan x="0" y="0">9</tspan></text>
              <text class="cls-27" transform="translate(1058 23.59) scale(.95 1)"><tspan class="cls-29" x="0" y="0">1</tspan><tspan class="cls-26" x="12.2" y="0">0</tspan></text>
              <text class="cls-27" transform="translate(651 518.59) scale(1.03 1)"><tspan x="0" y="0">1</tspan></text>
              <text class="cls-27" transform="translate(697 518.59) scale(.82 1)"><tspan x="0" y="0">2</tspan></text>
              <text class="cls-27" transform="translate(743 518.59) scale(.82 1)"><tspan x="0" y="0">3</tspan></text>
              <text class="cls-27" transform="translate(789 518.59) scale(.82 1)"><tspan x="0" y="0">4</tspan></text>
              <text class="cls-27" transform="translate(835 518.59) scale(.82 1)"><tspan x="0" y="0">5</tspan></text>
              <text class="cls-27" transform="translate(881 518.59) scale(.82 1)"><tspan x="0" y="0">6</tspan></text>
              <text class="cls-27" transform="translate(927 518.59) scale(.82 1)"><tspan x="0" y="0">7</tspan></text>
              <text class="cls-27" transform="translate(973 518.59) scale(.82 1)"><tspan x="0" y="0">8</tspan></text>
              <text class="cls-27" transform="translate(1019 518.59) scale(.82 1)"><tspan x="0" y="0">9</tspan></text>
              <text class="cls-27" transform="translate(1058 518.59) scale(.95 1)"><tspan class="cls-29" x="0" y="0">1</tspan><tspan class="cls-26" x="12.2" y="0">0</tspan></text>
            </g>
            <g id="_Слой_11_копия_" data-name="Слой 11 (копия)">
              <text class="cls-28" transform="translate(610 64.32) scale(.83 1)"><tspan x="0" y="0">A</tspan></text>
              <text class="cls-28" transform="translate(610 110.32) scale(.83 1)"><tspan x="0" y="0">B</tspan></text>
              <text class="cls-28" transform="translate(610 156.32) scale(.83 1)"><tspan x="0" y="0">C</tspan></text>
              <text class="cls-28" transform="translate(610 202.32) scale(.83 1)"><tspan x="0" y="0">D</tspan></text>
              <text class="cls-28" transform="translate(610 248.32) scale(.83 1)"><tspan x="0" y="0">E</tspan></text>
              <text class="cls-28" transform="translate(610 294.32) scale(.83 1)"><tspan x="0" y="0">F</tspan></text>
              <text class="cls-28" transform="translate(610 340.32) scale(.83 1)"><tspan x="0" y="0">G</tspan></text>
              <text class="cls-28" transform="translate(610 386.32) scale(.83 1)"><tspan x="0" y="0">H</tspan></text>
              <text class="cls-28" transform="translate(612 432.32) scale(1.01 1)"><tspan x="0" y="0">I</tspan></text>
              <text class="cls-28" transform="translate(610 478.32) scale(.83 1)"><tspan x="0" y="0">J</tspan></text>
              <text class="cls-28" transform="translate(1105 64.32) scale(.83 1)"><tspan x="0" y="0">A</tspan></text>
              <text class="cls-28" transform="translate(1105 110.32) scale(.83 1)"><tspan x="0" y="0">B</tspan></text>
              <text class="cls-28" transform="translate(1105 156.32) scale(.83 1)"><tspan x="0" y="0">C</tspan></text>
              <text class="cls-28" transform="translate(1105 202.32) scale(.83 1)"><tspan x="0" y="0">D</tspan></text>
              <text class="cls-28" transform="translate(1105 248.32) scale(.83 1)"><tspan x="0" y="0">E</tspan></text>
              <text class="cls-28" transform="translate(1105 294.32) scale(.83 1)"><tspan x="0" y="0">F</tspan></text>
              <text class="cls-28" transform="translate(1105 340.32) scale(.83 1)"><tspan x="0" y="0">G</tspan></text>
              <text class="cls-28" transform="translate(1105 386.32) scale(.83 1)"><tspan x="0" y="0">H</tspan></text>
              <text class="cls-28" transform="translate(1107 432.32) scale(1.01 1)"><tspan x="0" y="0">I</tspan></text>
              <text class="cls-28" transform="translate(1105 478.32) scale(.83 1)"><tspan x="0" y="0">J</tspan></text>
            </g>
          </g>
        </g>
        <g id="Grid">
          <rect class="cls-22" x="1049" y="449" width="46" height="46"/>
          <rect class="cls-3" x="1003" y="449" width="46" height="46"/>
          <rect class="cls-22" x="957" y="449" width="46" height="46"/>
          <rect class="cls-22" x="865" y="449" width="46" height="46"/>
          <rect class="cls-22" x="635" y="35" width="46" height="46"/>
          <rect class="cls-3" x="681" y="35" width="46" height="46"/>
          <rect class="cls-22" x="727" y="35" width="46" height="46"/>
          <rect class="cls-3" x="773" y="35" width="46" height="46"/>
          <rect class="cls-22" x="819" y="35" width="46" height="46"/>
          <rect class="cls-3" x="865" y="35" width="46" height="46"/>
          <rect class="cls-22" x="911" y="35" width="46" height="46"/>
          <rect class="cls-3" x="957" y="35" width="46" height="46"/>
          <rect class="cls-22" x="1003" y="35" width="46" height="46"/>
          <rect class="cls-3" x="1049" y="35" width="46" height="46"/>
          <rect class="cls-3" x="635" y="81" width="46" height="46"/>
          <rect class="cls-22" x="681" y="81" width="46" height="46"/>
          <rect class="cls-3" x="727" y="81" width="46" height="46"/>
          <rect class="cls-22" x="773" y="81" width="46" height="46"/>
          <rect class="cls-3" x="819" y="81" width="46" height="46"/>
          <rect class="cls-22" x="865" y="81" width="46" height="46"/>
          <rect class="cls-3" x="911" y="81" width="46" height="46"/>
          <rect class="cls-22" x="957" y="81" width="46" height="46"/>
          <rect class="cls-3" x="1003" y="81" width="46" height="46"/>
          <rect class="cls-22" x="1049" y="81" width="46" height="46"/>
          <rect class="cls-22" x="635" y="127" width="46" height="46"/>
          <rect class="cls-3" x="681" y="127" width="46" height="46"/>
          <rect class="cls-22" x="727" y="127" width="46" height="46"/>
          <rect class="cls-3" x="773" y="127" width="46" height="46"/>
          <rect class="cls-22" x="819" y="127" width="46" height="46"/>
          <rect class="cls-3" x="865" y="127" width="46" height="46"/>
          <rect class="cls-22" x="911" y="127" width="46" height="46"/>
          <rect class="cls-3" x="957" y="127" width="46" height="46"/>
          <rect class="cls-22" x="1003" y="127" width="46" height="46"/>
          <rect class="cls-3" x="1049" y="127" width="46" height="46"/>
          <rect class="cls-3" x="635" y="173" width="46" height="46"/>
          <rect class="cls-22" x="681" y="173" width="46" height="46"/>
          <rect class="cls-3" x="727" y="173" width="46" height="46"/>
          <rect class="cls-22" x="773" y="173" width="46" height="46"/>
          <rect class="cls-3" x="819" y="173" width="46" height="46"/>
          <rect class="cls-22" x="865" y="173" width="46" height="46"/>
          <rect class="cls-3" x="911" y="173" width="46" height="46"/>
          <rect class="cls-22" x="957" y="173" width="46" height="46"/>
          <rect class="cls-3" x="1003" y="173" width="46" height="46"/>
          <rect class="cls-22" x="1049" y="173" width="46" height="46"/>
          <rect class="cls-22" x="635" y="219" width="46" height="46"/>
          <rect class="cls-3" x="681" y="219" width="46" height="46"/>
          <rect class="cls-22" x="727" y="219" width="46" height="46"/>
          <rect class="cls-3" x="773" y="219" width="46" height="46"/>
          <rect class="cls-22" x="819" y="219" width="46" height="46"/>
          <rect class="cls-3" x="865" y="219" width="46" height="46"/>
          <rect class="cls-22" x="911" y="219" width="46" height="46"/>
          <rect class="cls-3" x="957" y="219" width="46" height="46"/>
          <rect class="cls-22" x="1003" y="219" width="46" height="46"/>
          <rect class="cls-3" x="1049" y="219" width="46" height="46"/>
          <rect class="cls-3" x="635" y="265" width="46" height="46"/>
          <rect class="cls-22" x="681" y="265" width="46" height="46"/>
          <rect class="cls-3" x="727" y="265" width="46" height="46"/>
          <rect class="cls-22" x="773" y="265" width="46" height="46"/>
          <rect class="cls-3" x="819" y="265" width="46" height="46"/>
          <rect class="cls-22" x="865" y="265" width="46" height="46"/>
          <rect class="cls-3" x="911" y="265" width="46" height="46"/>
          <rect class="cls-22" x="957" y="265" width="46" height="46"/>
          <rect class="cls-3" x="1003" y="265" width="46" height="46"/>
          <rect class="cls-22" x="1049" y="265" width="46" height="46"/>
          <rect class="cls-22" x="635" y="311" width="46" height="46"/>
          <rect class="cls-3" x="681" y="311" width="46" height="46"/>
          <rect class="cls-22" x="727" y="311" width="46" height="46"/>
          <rect class="cls-3" x="773" y="311" width="46" height="46"/>
          <rect class="cls-22" x="819" y="311" width="46" height="46"/>
          <rect class="cls-3" x="865" y="311" width="46" height="46"/>
          <rect class="cls-22" x="911" y="311" width="46" height="46"/>
          <rect class="cls-3" x="957" y="311" width="46" height="46"/>
          <rect class="cls-22" x="1003" y="311" width="46" height="46"/>
          <rect class="cls-3" x="1049" y="311" width="46" height="46"/>
          <rect class="cls-3" x="635" y="357" width="46" height="46"/>
          <rect class="cls-22" x="681" y="357" width="46" height="46"/>
          <rect class="cls-3" x="727" y="357" width="46" height="46"/>
          <rect class="cls-22" x="773" y="357" width="46" height="46"/>
          <rect class="cls-3" x="819" y="357" width="46" height="46"/>
          <rect class="cls-22" x="865" y="357" width="46" height="46"/>
          <rect class="cls-3" x="911" y="357" width="46" height="46"/>
          <rect class="cls-22" x="957" y="357" width="46" height="46"/>
          <rect class="cls-3" x="1003" y="357" width="46" height="46"/>
          <rect class="cls-22" x="1049" y="357" width="46" height="46"/>
          <rect class="cls-22" x="635" y="403" width="46" height="46"/>
          <rect class="cls-3" x="681" y="403" width="46" height="46"/>
          <rect class="cls-22" x="727" y="403" width="46" height="46"/>
          <rect class="cls-3" x="773" y="403" width="46" height="46"/>
          <rect class="cls-22" x="819" y="403" width="46" height="46"/>
          <rect class="cls-3" x="865" y="403" width="46" height="46"/>
          <rect class="cls-22" x="911" y="403" width="46" height="46"/>
          <rect class="cls-3" x="957" y="403" width="46" height="46"/>
          <rect class="cls-22" x="1003" y="403" width="46" height="46"/>
          <rect class="cls-3" x="1049" y="403" width="46" height="46"/>
          <rect class="cls-3" x="635" y="449" width="46" height="46"/>
          <rect class="cls-22" x="681" y="449" width="46" height="46"/>
          <rect class="cls-3" x="727" y="449" width="46" height="46"/>
          <rect class="cls-22" x="773" y="449" width="46" height="46"/>
          <rect class="cls-3" x="819" y="449" width="46" height="46"/>
          <rect class="cls-3" x="911" y="449" width="46" height="46"/>
        </g>
      </g>
      <g id="Left_Board" data-name="Left Board">
        <g id="Frame-2" data-name="Frame">
          <path class="cls-17" d="m0,0v530h530V0H0Zm495,495H35V35h460v460Z"/>
          <path class="cls-4" d="m540,540c-3.33-3.33-6.67-6.67-10-10V0c3.33,3.36,6.67,6.73,10,10.09v529.91Z"/>
          <path class="cls-6" d="m10.09,540h529.91c-3.33-3.33-6.67-6.67-10-10H0c3.36,3.33,6.73,6.67,10.09,10Z"/>
          <g id="Screw-5" data-name="Screw">
            <circle class="cls-21" cx="18.5" cy="18.5" r="8.04"/>
            <circle class="cls-23" cx="18.5" cy="18.5" r="9.5"/>
            <rect class="cls-8" x="11.92" y="17.77" width="13.15" height="1.46"/>
          </g>
          <g id="Screw-6" data-name="Screw">
            <circle class="cls-18" cx="18.5" cy="511.5" r="8.04"/>
            <circle class="cls-15" cx="18.5" cy="511.5" r="9.5"/>
            <rect class="cls-8" x="11.92" y="510.77" width="13.15" height="1.46" transform="translate(-403.33 221.62) rotate(-53.43)"/>
          </g>
          <g id="Screw-7" data-name="Screw">
            <circle class="cls-12" cx="511.5" cy="511.5" r="8.04"/>
            <circle class="cls-24" cx="511.5" cy="511.5" r="9.5"/>
            <rect class="cls-8" x="504.92" y="510.77" width="13.15" height="1.46" transform="translate(210.19 -146.13) rotate(20.38)"/>
          </g>
          <g id="Screw-8" data-name="Screw">
            <circle class="cls-13" cx="511.5" cy="18.5" r="8.04"/>
            <circle class="cls-11" cx="511.5" cy="18.5" r="9.5"/>
            <rect class="cls-8" x="504.92" y="17.77" width="13.15" height="1.46" transform="translate(40.22 218.17) rotate(-25.03)"/>
          </g>
          <g id="_Слой_13" data-name="Слой 13">
            <g id="_Слой_10" data-name="Слой 10">
              <text class="cls-27" transform="translate(51 23.59) scale(1.03 1)"><tspan x="0" y="0">1</tspan></text>
              <text class="cls-27" transform="translate(97 23.59) scale(.82 1)"><tspan x="0" y="0">2</tspan></text>
              <text class="cls-27" transform="translate(143 23.59) scale(.82 1)"><tspan x="0" y="0">3</tspan></text>
              <text class="cls-27" transform="translate(189 23.59) scale(.82 1)"><tspan x="0" y="0">4</tspan></text>
              <text class="cls-27" transform="translate(235 23.59) scale(.82 1)"><tspan x="0" y="0">5</tspan></text>
              <text class="cls-27" transform="translate(281 23.59) scale(.82 1)"><tspan x="0" y="0">6</tspan></text>
              <text class="cls-27" transform="translate(327 23.59) scale(.82 1)"><tspan x="0" y="0">7</tspan></text>
              <text class="cls-27" transform="translate(373 23.59) scale(.82 1)"><tspan x="0" y="0">8</tspan></text>
              <text class="cls-27" transform="translate(419 23.59) scale(.82 1)"><tspan x="0" y="0">9</tspan></text>
              <text class="cls-27" transform="translate(458 23.59) scale(.95 1)"><tspan class="cls-29" x="0" y="0">1</tspan><tspan class="cls-26" x="12.2" y="0">0</tspan></text>
              <text class="cls-27" transform="translate(51 518.59) scale(1.03 1)"><tspan x="0" y="0">1</tspan></text>
              <text class="cls-27" transform="translate(97 518.59) scale(.82 1)"><tspan x="0" y="0">2</tspan></text>
              <text class="cls-27" transform="translate(143 518.59) scale(.82 1)"><tspan x="0" y="0">3</tspan></text>
              <text class="cls-27" transform="translate(189 518.59) scale(.82 1)"><tspan x="0" y="0">4</tspan></text>
              <text class="cls-27" transform="translate(235 518.59) scale(.82 1)"><tspan x="0" y="0">5</tspan></text>
              <text class="cls-27" transform="translate(281 518.59) scale(.82 1)"><tspan x="0" y="0">6</tspan></text>
              <text class="cls-27" transform="translate(327 518.59) scale(.82 1)"><tspan x="0" y="0">7</tspan></text>
              <text class="cls-27" transform="translate(373 518.59) scale(.82 1)"><tspan x="0" y="0">8</tspan></text>
              <text class="cls-27" transform="translate(419 518.59) scale(.82 1)"><tspan x="0" y="0">9</tspan></text>
              <text class="cls-27" transform="translate(458 518.59) scale(.95 1)"><tspan class="cls-29" x="0" y="0">1</tspan><tspan class="cls-26" x="12.2" y="0">0</tspan></text>
            </g>
            <g id="_Слой_11" data-name="Слой 11">
              <text class="cls-28" transform="translate(10 64.32) scale(.83 1)"><tspan x="0" y="0">A</tspan></text>
              <text class="cls-28" transform="translate(10 110.32) scale(.83 1)"><tspan x="0" y="0">B</tspan></text>
              <text class="cls-28" transform="translate(10 156.32) scale(.83 1)"><tspan x="0" y="0">C</tspan></text>
              <text class="cls-28" transform="translate(10 202.32) scale(.83 1)"><tspan x="0" y="0">D</tspan></text>
              <text class="cls-28" transform="translate(10 248.32) scale(.83 1)"><tspan x="0" y="0">E</tspan></text>
              <text class="cls-28" transform="translate(10 294.32) scale(.83 1)"><tspan x="0" y="0">F</tspan></text>
              <text class="cls-28" transform="translate(10 340.32) scale(.83 1)"><tspan x="0" y="0">G</tspan></text>
              <text class="cls-28" transform="translate(10 386.32) scale(.83 1)"><tspan x="0" y="0">H</tspan></text>
              <text class="cls-28" transform="translate(12 432.32) scale(1.01 1)"><tspan x="0" y="0">I</tspan></text>
              <text class="cls-28" transform="translate(10 478.32) scale(.83 1)"><tspan x="0" y="0">J</tspan></text>
              <text class="cls-28" transform="translate(505 64.32) scale(.83 1)"><tspan x="0" y="0">A</tspan></text>
              <text class="cls-28" transform="translate(505 110.32) scale(.83 1)"><tspan x="0" y="0">B</tspan></text>
              <text class="cls-28" transform="translate(505 156.32) scale(.83 1)"><tspan x="0" y="0">C</tspan></text>
              <text class="cls-28" transform="translate(505 202.32) scale(.83 1)"><tspan x="0" y="0">D</tspan></text>
              <text class="cls-28" transform="translate(505 248.32) scale(.83 1)"><tspan x="0" y="0">E</tspan></text>
              <text class="cls-28" transform="translate(505 294.32) scale(.83 1)"><tspan x="0" y="0">F</tspan></text>
              <text class="cls-28" transform="translate(505 340.32) scale(.83 1)"><tspan x="0" y="0">G</tspan></text>
              <text class="cls-28" transform="translate(505 386.32) scale(.83 1)"><tspan x="0" y="0">H</tspan></text>
              <text class="cls-28" transform="translate(507 432.32) scale(1.01 1)"><tspan x="0" y="0">I</tspan></text>
              <text class="cls-28" transform="translate(505 478.32) scale(.83 1)"><tspan x="0" y="0">J</tspan></text>
            </g>
          </g>
        </g>
        <g id="Grid-2" data-name="Grid">
          <rect class="cls-22" x="35" y="35" width="46" height="46"/>
          <rect class="cls-3" x="81" y="35" width="46" height="46"/>
          <rect class="cls-22" x="127" y="35" width="46" height="46"/>
          <rect class="cls-3" x="173" y="35" width="46" height="46"/>
          <rect class="cls-22" x="219" y="35" width="46" height="46"/>
          <rect class="cls-3" x="265" y="35" width="46" height="46"/>
          <rect class="cls-22" x="311" y="35" width="46" height="46"/>
          <rect class="cls-3" x="357" y="35" width="46" height="46"/>
          <rect class="cls-22" x="403" y="35" width="46" height="46"/>
          <rect class="cls-3" x="449" y="35" width="46" height="46"/>
          <rect class="cls-3" x="35" y="81" width="46" height="46"/>
          <rect class="cls-22" x="81" y="81" width="46" height="46"/>
          <rect class="cls-3" x="127" y="81" width="46" height="46"/>
          <rect class="cls-22" x="173" y="81" width="46" height="46"/>
          <rect class="cls-3" x="219" y="81" width="46" height="46"/>
          <rect class="cls-22" x="265" y="81" width="46" height="46"/>
          <rect class="cls-3" x="311" y="81" width="46" height="46"/>
          <rect class="cls-22" x="357" y="81" width="46" height="46"/>
          <rect class="cls-3" x="403" y="81" width="46" height="46"/>
          <rect class="cls-22" x="449" y="81" width="46" height="46"/>
          <rect class="cls-22" x="35" y="127" width="46" height="46"/>
          <rect class="cls-3" x="81" y="127" width="46" height="46"/>
          <rect class="cls-22" x="127" y="127" width="46" height="46"/>
          <rect class="cls-3" x="173" y="127" width="46" height="46"/>
          <rect class="cls-22" x="219" y="127" width="46" height="46"/>
          <rect class="cls-3" x="265" y="127" width="46" height="46"/>
          <rect class="cls-22" x="311" y="127" width="46" height="46"/>
          <rect class="cls-3" x="357" y="127" width="46" height="46"/>
          <rect class="cls-22" x="403" y="127" width="46" height="46"/>
          <rect class="cls-3" x="449" y="127" width="46" height="46"/>
          <rect class="cls-3" x="35" y="173" width="46" height="46"/>
          <rect class="cls-22" x="81" y="173" width="46" height="46"/>
          <rect class="cls-3" x="127" y="173" width="46" height="46"/>
          <rect class="cls-22" x="173" y="173" width="46" height="46"/>
          <rect class="cls-3" x="219" y="173" width="46" height="46"/>
          <rect class="cls-22" x="265" y="173" width="46" height="46"/>
          <rect class="cls-3" x="311" y="173" width="46" height="46"/>
          <rect class="cls-22" x="357" y="173" width="46" height="46"/>
          <rect class="cls-3" x="403" y="173" width="46" height="46"/>
          <rect class="cls-22" x="449" y="173" width="46" height="46"/>
          <rect class="cls-22" x="35" y="219" width="46" height="46"/>
          <rect class="cls-3" x="81" y="219" width="46" height="46"/>
          <rect class="cls-22" x="127" y="219" width="46" height="46"/>
          <rect class="cls-3" x="173" y="219" width="46" height="46"/>
          <rect class="cls-22" x="219" y="219" width="46" height="46"/>
          <rect class="cls-3" x="265" y="219" width="46" height="46"/>
          <rect class="cls-22" x="311" y="219" width="46" height="46"/>
          <rect class="cls-3" x="357" y="219" width="46" height="46"/>
          <rect class="cls-22" x="403" y="219" width="46" height="46"/>
          <rect class="cls-3" x="449" y="219" width="46" height="46"/>
          <rect class="cls-3" x="35" y="265" width="46" height="46"/>
          <rect class="cls-22" x="81" y="265" width="46" height="46"/>
          <rect class="cls-3" x="127" y="265" width="46" height="46"/>
          <rect class="cls-22" x="173" y="265" width="46" height="46"/>
          <rect class="cls-3" x="219" y="265" width="46" height="46"/>
          <rect class="cls-22" x="265" y="265" width="46" height="46"/>
          <rect class="cls-3" x="311" y="265" width="46" height="46"/>
          <rect class="cls-22" x="357" y="265" width="46" height="46"/>
          <rect class="cls-3" x="403" y="265" width="46" height="46"/>
          <rect class="cls-22" x="449" y="265" width="46" height="46"/>
          <rect class="cls-22" x="35" y="311" width="46" height="46"/>
          <rect class="cls-3" x="81" y="311" width="46" height="46"/>
          <rect class="cls-22" x="127" y="311" width="46" height="46"/>
          <rect class="cls-3" x="173" y="311" width="46" height="46"/>
          <rect class="cls-22" x="219" y="311" width="46" height="46"/>
          <rect class="cls-3" x="265" y="311" width="46" height="46"/>
          <rect class="cls-22" x="311" y="311" width="46" height="46"/>
          <rect class="cls-3" x="357" y="311" width="46" height="46"/>
          <rect class="cls-22" x="403" y="311" width="46" height="46"/>
          <rect class="cls-3" x="449" y="311" width="46" height="46"/>
          <rect class="cls-3" x="35" y="357" width="46" height="46"/>
          <rect class="cls-22" x="81" y="357" width="46" height="46"/>
          <rect class="cls-3" x="127" y="357" width="46" height="46"/>
          <rect class="cls-22" x="173" y="357" width="46" height="46"/>
          <rect class="cls-3" x="219" y="357" width="46" height="46"/>
          <rect class="cls-22" x="265" y="357" width="46" height="46"/>
          <rect class="cls-3" x="311" y="357" width="46" height="46"/>
          <rect class="cls-22" x="357" y="357" width="46" height="46"/>
          <rect class="cls-3" x="403" y="357" width="46" height="46"/>
          <rect class="cls-22" x="449" y="357" width="46" height="46"/>
          <rect class="cls-22" x="35" y="403" width="46" height="46"/>
          <rect class="cls-3" x="81" y="403" width="46" height="46"/>
          <rect class="cls-22" x="127" y="403" width="46" height="46"/>
          <rect class="cls-3" x="173" y="403" width="46" height="46"/>
          <rect class="cls-22" x="219" y="403" width="46" height="46"/>
          <rect class="cls-3" x="265" y="403" width="46" height="46"/>
          <rect class="cls-22" x="311" y="403" width="46" height="46"/>
          <rect class="cls-3" x="357" y="403" width="46" height="46"/>
          <rect class="cls-22" x="403" y="403" width="46" height="46"/>
          <rect class="cls-3" x="449" y="403" width="46" height="46"/>
          <rect class="cls-3" x="35" y="449" width="46" height="46"/>
          <rect class="cls-22" x="81" y="449" width="46" height="46"/>
          <rect class="cls-3" x="127" y="449" width="46" height="46"/>
          <rect class="cls-22" x="173" y="449" width="46" height="46"/>
          <rect class="cls-3" x="219" y="449" width="46" height="46"/>
          <rect class="cls-22" x="265" y="449" width="46" height="46"/>
          <rect class="cls-3" x="311" y="449" width="46" height="46"/>
          <rect class="cls-22" x="357" y="449" width="46" height="46"/>
          <rect class="cls-3" x="403" y="449" width="46" height="46"/>
          <rect class="cls-22" x="449" y="449" width="46" height="46"/>
        </g>
      </g>
    </g>
  </g>
</svg>