<?xml version="1.0" encoding="UTF-8"?>
<svg id="_Слой_2" data-name="Слой 2" xmlns="http://www.w3.org/2000/svg" viewBox="0 0 207 207">
  <defs>
    <style>
      .cls-1 {
        fill: #051603;
        stroke-width: 3px;
      }

      .cls-1, .cls-2, .cls-3 {
        stroke: #3cff00;
        stroke-miterlimit: 10;
      }

      .cls-2, .cls-3 {
        fill: none;
      }

      .cls-4, .cls-5 {
        fill: #3cff00;
        stroke-width: 0px;
      }

      .cls-3, .cls-5 {
        fill-rule: evenodd;
      }
    </style>
  </defs>
  <g id="_Слой_1-2" data-name="Слой 1">
    <g>
      <g>
        <rect class="cls-1" x="1.5" y="1.5" width="204" height="204" rx="10" ry="10"/>
        <g>
          <g>
            <path class="cls-4" d="m100.61,194.09l-7.3-.36c-9.98-.5-16.94-27.22-17.15-36.49l45.15,2.25c-1.11,9.01-10.56,34.61-20.42,34.61-.09,0-.18,0-.27,0Z"/>
            <path class="cls-4" d="m76.67,157.76l44.07,2.2c-1.45,10.17-11.03,33.64-19.85,33.64-.08,0-.17,0-.25,0l-7.3-.36c-8.92-.44-16.23-24.99-16.66-35.47m-1.02-1.05c-.06,9.01,7.14,36.99,17.63,37.52l7.3.36c.1,0,.2,0,.3,0,10.38,0,20.14-26.7,20.97-35.58l-46.21-2.3h0Z"/>
          </g>
          <path class="cls-2" d="m125.83,79.74l-3.92,78.64c0,.19-.02.41-.06.63l-46.21-2.3c-.01-.22,0-.44,0-.63l3.92-78.64c.01-.23.02-.46.06-.67l46.21,2.3c.01.22,0,.45,0,.68Z"/>
          <path class="cls-5" d="m79.37,81.61l-1.67,33.42c-4.98-4.32-9.97-8.65-14.96-12.97-1.78-1.55-3.56-3.1-5.34-4.64l1.37-27.41c6.86,3.87,13.74,7.74,20.6,11.61Z"/>
          <path class="cls-3" d="m77.71,115.02l-.26,5.14c-5.04-3.31-10.07-6.6-15.11-9.91l.41-8.2c4.99,4.32,9.98,8.65,14.96,12.97Z"/>
          <path class="cls-5" d="m125.47,83.75l-1.67,33.42c5.38-3.81,10.78-7.61,16.18-11.42,1.93-1.37,3.85-2.73,5.78-4.09l1.37-27.41c-7.21,3.17-14.44,6.33-21.65,9.5Z"/>
          <path class="cls-3" d="m123.81,117.17l-.26,5.14c5.35-2.79,10.68-5.57,16.02-8.36l.41-8.2c-5.4,3.81-10.79,7.61-16.18,11.42Z"/>
          <line class="cls-2" x1="76.47" y1="141.81" x2="122.61" y2="144.21"/>
        </g>
      </g>
      <g>
        <g>
          <path class="cls-4" d="m39.15,117.35c-.48,0-.93-.07-1.36-.19l-5.78-1.73c-7.83-2.34-8.15-24.9-6.52-32.44l35.58,10.64c-2.79,7.3-14.32,23.72-21.91,23.72Z"/>
          <path class="cls-4" d="m25.86,83.62l34.53,10.33c-3.05,7.42-14.02,22.9-21.24,22.9-.43,0-.84-.06-1.22-.17l-5.78-1.73c-6.93-2.07-7.95-22.78-6.29-31.33m-.74-1.27c-1.82,7.21-1.56,31.07,6.75,33.55l5.78,1.73c.49.15.99.21,1.51.21,8.32,0,20.26-17.93,22.56-24.55l-36.59-10.95h0Z"/>
        </g>
        <path class="cls-2" d="m80.51,30.53l-18.63,62.28c-.05.15-.1.33-.17.49l-36.59-10.95c.03-.18.08-.35.13-.5l18.63-62.28c.05-.18.11-.36.18-.53l36.59,10.95c-.03.18-.09.36-.14.54Z"/>
        <path class="cls-5" d="m42.89,22.87l-7.92,26.47c-3.14-4.45-6.29-8.9-9.44-13.35-1.12-1.6-2.24-3.18-3.37-4.77l6.49-21.71c4.74,4.45,9.49,8.91,14.23,13.36Z"/>
        <path class="cls-3" d="m34.98,49.33l-1.22,4.07c-3.39-3.65-6.77-7.28-10.16-10.92l1.94-6.49c3.15,4.45,6.3,8.9,9.44,13.35Z"/>
        <path class="cls-5" d="m79.44,33.67l-7.92,26.47c5.07-1.99,10.14-3.98,15.22-5.97,1.82-.72,3.62-1.43,5.44-2.14l6.49-21.71c-6.41,1.12-12.83,2.23-19.23,3.35Z"/>
        <path class="cls-3" d="m71.52,60.14l-1.22,4.07c4.84-1.18,9.66-2.36,14.49-3.55l1.94-6.49c-5.08,1.99-10.15,3.98-15.22,5.97Z"/>
        <line class="cls-2" x1="28.71" y1="70.57" x2="65.23" y2="81.58"/>
      </g>
      <g>
        <g>
          <path class="cls-4" d="m161.26,140.53c-8.01,0-18.18-18.62-20.2-25.56l36.37-7.5c.97,7.66-1.33,30.1-9.33,31.75l-5.91,1.22c-.3.06-.61.09-.93.09Z"/>
          <path class="cls-4" d="m177,108.07c.91,8.66-1.91,29.2-9,30.66l-5.91,1.22c-.27.06-.55.08-.83.08-7.12,0-17.11-16.88-19.56-24.68l35.3-7.28m.85-1.2l-37.41,7.72c1.74,6.92,12.45,26.44,20.82,26.44.35,0,.69-.03,1.03-.1l5.91-1.22c8.49-1.75,10.83-25.49,9.65-32.84h0Z"/>
        </g>
        <path class="cls-2" d="m164.63,42.69l13.13,63.67c.03.16.07.33.09.51l-37.41,7.72c-.06-.17-.09-.35-.12-.5l-13.13-63.67c-.04-.18-.08-.37-.09-.55l37.41-7.72c.06.17.09.36.13.54Z"/>
        <path class="cls-5" d="m127.88,53.78l5.58,27.06c-4.87-2.43-9.76-4.85-14.64-7.28-1.75-.87-3.48-1.74-5.23-2.6l-4.58-22.19c6.29,1.67,12.58,3.34,18.87,5.02Z"/>
        <path class="cls-3" d="m133.46,80.84l.86,4.16c-4.71-1.6-9.42-3.2-14.13-4.8l-1.37-6.64c4.88,2.42,9.77,4.85,14.64,7.28Z"/>
        <path class="cls-5" d="m165.17,45.97l5.58,27.06c3.52-4.16,7.04-8.32,10.57-12.47,1.26-1.49,2.51-2.98,3.77-4.46l-4.58-22.19c-5.11,4.02-10.23,8.05-15.34,12.07Z"/>
        <path class="cls-3" d="m170.75,73.02l.86,4.16c3.7-3.34,7.38-6.66,11.08-10l-1.37-6.64c-3.53,4.16-7.05,8.32-10.57,12.47Z"/>
        <line class="cls-2" x1="138.01" y1="102.51" x2="175.39" y2="94.88"/>
      </g>
    </g>
  </g>
</svg>