<?xml version="1.0" encoding="UTF-8"?>
<svg id="_Слой_2" data-name="Слой 2" xmlns="http://www.w3.org/2000/svg" viewBox="0 0 207.67 207.75">
  <defs>
    <style>
      .cls-1 {
        fill: #4d4d4d;
      }

      .cls-1, .cls-2 {
        stroke-width: 0px;
      }

      .cls-3, .cls-4, .cls-5 {
        fill: #051603;
      }

      .cls-3, .cls-4, .cls-5, .cls-6 {
        stroke: #333;
        stroke-miterlimit: 10;
      }

      .cls-3, .cls-6 {
        stroke-width: 3px;
      }

      .cls-2 {
        fill: #333;
      }

      .cls-5 {
        stroke-width: 4px;
      }

      .cls-6 {
        fill: none;
      }
    </style>
  </defs>
  <g id="_Слой_1-2" data-name="Слой 1">
    <g>
      <path class="cls-5" d="m205.67,142.53v52.97c0,5.52-4.48,10-10,10h-91.9c.01.08.02.17.03.25h-5.87c.01-.08.02-.17.05-.25H11.67c-4.64,0-8.55-3.17-9.67-7.46v-63.23c11.95-1.83,19.9.38,25.25,3.19,7.86,4.12,9.21,9.07,18,11,8.79,1.93,13.06-1.78,23,1,5.78,1.61,6.47,3.47,12,6,.8.37,1.6.7,2.4,1.01,1.5.57,3.01,1.05,4.52,1.43.3.08.6.16.9.22.3.08.6.14.9.2.56.12,1.12.23,1.68.32.32.06.64.11.96.16.62.1,1.23.18,1.84.24.32.04.64.07.96.1.46.05.93.08,1.39.11.39.02.77.05,1.16.06,1.14.05,2.26.06,3.37.04.13,0,.25,0,.38-.01.56-.01,1.13-.03,1.68-.07.03.01.06,0,.08,0,.33-.02.65-.04.97-.06h.1c.52-.04,1.05-.09,1.56-.14,2.54-.24,4.92-.61,7.08-1.02.31-.06.61-.12.91-.18,2.39-.48,4.48-.99,6.16-1.41,15.89-3.93,13.49-8.49,26-11,18.38-3.68,25.38,5.79,43,3,.44-.07.89-.15,1.36-.24.44-.08.89-.17,1.35-.27.65-.15,1.31-.31,2-.5.34-.09.68-.18,1.03-.29.34-.1.7-.21,1.05-.33.31-.09.62-.19.93-.31,1.14-.39,2.33-.84,3.56-1.38.39-.16.78-.34,1.18-.53.4-.18.81-.38,1.21-.58.4-.19.81-.4,1.23-.63.83-.43,1.67-.9,2.52-1.41Z"/>
      <path class="cls-3" d="m206,115.05v27.29c-.11.07-.22.13-.33.19-.85.51-1.69.98-2.52,1.41-.42.22-.83.43-1.23.63-.4.2-.81.4-1.21.58-.4.19-.79.36-1.18.53-1.23.54-2.42.99-3.56,1.38-.31.11-.62.22-.93.31-.35.12-.71.23-1.05.33-.35.1-.7.2-1.03.29-.69.19-1.35.35-2,.5-.46.1-.91.19-1.35.27-.47.09-.92.17-1.36.24-17.62,2.79-24.62-6.68-43-3-12.51,2.51-10.11,7.07-26,11-1.68.42-3.77.93-6.16,1.41-.3.06-.6.12-.91.18-2.16.41-4.54.78-7.08,1.02-.51.05-1.04.1-1.56.14h-.1c-.32.02-.64.04-.97.06-.02,0-.05.01-.08,0-.55.04-1.11.06-1.68.07-.13.01-.25.01-.38.01-1.11.02-2.23,0-3.37-.04-.39-.01-.77-.03-1.16-.06-.46-.03-.93-.06-1.39-.11-.32-.03-.64-.06-.96-.1-.61-.06-1.22-.14-1.84-.24-.32-.05-.64-.1-.96-.16-.56-.09-1.12-.2-1.68-.32-.3-.06-.6-.12-.9-.2-.3-.06-.6-.14-.9-.22-1.51-.38-3.02-.86-4.52-1.43-.8-.31-1.6-.65-2.4-1.01-5.53-2.53-6.22-4.39-12-6-9.94-2.78-14.21.93-23-1-8.79-1.93-10.14-6.88-18-11-5.35-2.81-13.3-5.02-25.25-3.19v-26.3c9.69-.84,17.44.16,23.25,1.49,9.85,2.26,13.41,5.3,28,10,.93.3,1.92.62,2.96.95,1.37,2.2,2.9,4.3,4.57,6.27.24.29.49.58.75.86.13.16.26.31.41.46.19.22.39.43.6.65.3.33.61.66.94.98.3.31.6.62.92.92.07.08.15.15.23.23.27.26.55.51.83.77.13.12.27.25.41.37.36.33.73.65,1.1.96.32.28.65.55.98.81.52.43,1.06.85,1.61,1.26.34.25.69.51,1.04.75,1.79,1.28,3.67,2.44,5.63,3.49.34.19.68.37,1.03.54.63.32,1.27.63,1.92.93.24.11.49.22.73.33.35.15.7.3,1.05.44.4.17.8.33,1.21.49.35.13.7.27,1.05.39.11.04.22.08.34.12.36.13.73.26,1.1.38.13.05.27.09.41.13.42.14.85.27,1.28.39.5.15,1.01.29,1.52.42.52.14,1.03.26,1.55.38.52.12,1.04.23,1.56.33,2.1.41,4.23.7,6.41.85.3.02.61.05.92.06.31.02.63.04.95.05.27.01.54.02.82.02.12.01.25.01.38.01.26.01.52.01.79.01.57,0,1.14-.01,1.71-.03.34-.01.67-.03,1-.05.01.01.02.01.03,0,0,.01.02,0,.02,0,.51-.02,1.01-.05,1.51-.09.19,0,.38-.03.56-.06.38-.02.76-.06,1.14-.11.57-.06,1.15-.13,1.72-.22,1.13-.16,2.24-.36,3.35-.6.02,0,.04,0,.05-.01.43-.09.86-.19,1.29-.3.18-.03.36-.07.53-.12.32-.08.64-.16.95-.25.28-.07.57-.15.85-.24.43-.12.87-.25,1.3-.39.48-.15.96-.31,1.44-.48.47-.15.94-.32,1.4-.51.3-.11.59-.22.88-.34.34-.13.68-.27,1.01-.42.45-.18.9-.38,1.34-.59.31-.14.62-.28.92-.43.7-.34,1.38-.69,2.06-1.05.55-.29,1.09-.6,1.63-.92.48-.28.95-.56,1.42-.86.47-.28.93-.58,1.39-.9.46-.3.91-.62,1.36-.94.39-.28.78-.57,1.16-.86.14-.1.28-.21.43-.33.29-.22.58-.45.86-.68.4-.31.79-.64,1.19-.99.4-.34.79-.68,1.18-1.04,1.32-1.2,2.59-2.47,3.78-3.8.32-.35.63-.71.93-1.07l.21-.24c.18-.22.36-.44.54-.66.25-.3.5-.61.74-.92.08-.11.16-.21.24-.32.25-.33.5-.66.73-.99.15-.19.29-.38.42-.58.19-.26.38-.52.55-.79.17-.24.34-.48.49-.73.3-.44.58-.88.85-1.33.19-.3.37-.6.55-.91.17-.28.33-.57.49-.85.55-.96,1.07-1.95,1.55-2.95,4.29-.72,8.68-1.13,13.25-1.05,10.11.18,16,1,16,1,11.1,1.54,13.86,3.73,19,3,.3-.04.6-.1.91-.16.01,0,.02,0,.03-.01.3-.06.61-.13.93-.21.19-.05.38-.11.57-.17.86-.26,1.77-.62,2.73-1.11.48-.24.98-.52,1.5-.84.38-.23.77-.49,1.16-.77.19-.13.39-.28.59-.43.11-.08.22-.16.33-.25Z"/>
      <path class="cls-4" d="m205.67,11.5v103.8c-.2.15-.4.3-.59.43-.39.28-.78.54-1.16.77-.52.32-1.02.6-1.5.84-.96.49-1.87.85-2.73,1.11-.19.06-.38.12-.57.17-.32.08-.63.15-.93.21-.01.01-.02.01-.03.01-.31.06-.61.12-.91.16-5.14.73-7.9-1.46-19-3,0,0-5.89-.82-16-1-4.57-.08-8.96.33-13.25,1.05-20.35,3.38-38.55,13.66-63.79,11.41-10.75-.96-21.28-4.06-29-6.51-1.04-.33-2.03-.65-2.96-.95-14.59-4.7-18.15-7.74-28-10-5.81-1.33-13.56-2.33-23.25-1.49V8.96c.94-3.59,3.82-6.39,7.46-7.21h188.42c4.46,1,7.79,4.99,7.79,9.75Z"/>
      <rect class="cls-2" x="46.08" y="55.52" width="31" height="6.07" rx="2" ry="2" transform="translate(50.05 -25.63) rotate(38.64)"/>
      <rect class="cls-2" x="104.72" y="46.22" width="31" height="6.34" rx="2" ry="2" transform="translate(214.91 -39.64) rotate(114.44)"/>
      <path class="cls-6" d="m154.25,93c0,8.26-1.89,16.08-5.25,23.05-20.35,3.38-38.55,13.66-63.79,11.41-10.75-.96-21.28-4.06-29-6.51-5.05-8.11-7.96-17.69-7.96-27.95,0-29.27,23.73-53,53-53s53,23.73,53,53Z"/>
      <path class="cls-1" d="m149,116.05c-8.58,17.72-26.74,29.95-47.75,29.95-19.01,0-35.69-10.01-45.04-25.05,7.72,2.45,18.25,5.55,29,6.51,25.24,2.25,43.44-8.03,63.79-11.41Z"/>
      <ellipse class="cls-2" cx="99.75" cy="49" rx="15.5" ry="6"/>
      <rect class="cls-2" x="140.02" y="58.44" width="31" height="5.6" rx="2" ry="2" transform="translate(-11.07 47.65) rotate(-16.83)"/>
      <rect class="cls-2" x="24.66" y="92.05" width="31" height="6.34" rx="2" ry="2" transform="translate(15.92 -5.24) rotate(9.3)"/>
      <rect class="cls-2" x="144.72" y="102.75" width="37.56" height="6.34" rx="2" ry="2" transform="translate(7.24 -10.42) rotate(3.73)"/>
      <rect class="cls-2" x="73.91" y="105.74" width="6.25" height="5.87" rx="2" ry="2" transform="translate(72.76 -24.47) rotate(33.49)"/>
      <rect class="cls-2" x="122.95" y="106.98" width="6.25" height="5.87" rx="2" ry="2" transform="translate(81.58 -51.32) rotate(33.49)"/>
      <g>
        <path class="cls-2" d="m104.56,146.83c-.16-.34-.36-.65-.57-.91-.49-.58-1.09-.92-1.74-.92s-1.29.37-1.79.99c-.2.24-.38.53-.52.84-.43.86-.69,1.97-.69,3.17,0,1.48.39,2.81,1.01,3.73.27.41.59.74.94.95.32.21.68.32,1.05.32.57,0,1.1-.26,1.55-.72.33-.33.62-.76.84-1.27.38-.84.61-1.88.61-3.01,0-1.2-.26-2.31-.69-3.17Zm-3.46,5.62c-.51-.54-.85-1.44-.85-2.45,0-1.66.9-3,2-3s2,1.34,2,3c0,.8-.2,1.52-.55,2.05-.36.59-.88.95-1.45.95-.43,0-.83-.21-1.15-.55Z"/>
        <ellipse class="cls-2" cx="102.25" cy="145.5" rx="5" ry="1.5"/>
        <path class="cls-2" d="m104.64,153.01c-.26-.41-.58-.74-.94-.96-.32-.21-.68-.32-1.05-.32-.57,0-1.1.26-1.55.72-.33.33-.62.76-.84,1.28-.38.83-.61,1.87-.61,3,0,1.2.26,2.3.68,3.16.06.13.13.25.2.37.25.43.56.78.89,1.03.37.28.79.44,1.23.44.61,0,1.17-.3,1.64-.82.32-.34.59-.77.81-1.29h0c.34-.82.55-1.82.55-2.89,0-1.48-.38-2.81-1.01-3.72Zm-.84,1.27c.51.54.85,1.44.85,2.45,0,.71-.16,1.36-.44,1.87-.36.69-.93,1.13-1.56,1.13-.51,0-.97-.28-1.32-.75-.42-.55-.68-1.35-.68-2.25,0-.8.2-1.52.55-2.05.36-.59.88-.95,1.45-.95.43,0,.83.2,1.15.55Z"/>
        <path class="cls-2" d="m105.1,159.62h0c-.26-.43-.56-.77-.89-1.02-.37-.28-.79-.44-1.23-.44-.61,0-1.18.3-1.65.82-.23.25-.44.56-.62.9-.06.12-.12.25-.18.38-.35.82-.55,1.82-.55,2.9,0,1.26.27,2.41.74,3.29.21.4.47.76.75,1.03.44.43.96.68,1.51.68.64,0,1.23-.33,1.72-.9.34-.39.62-.9.83-1.48.29-.76.45-1.66.45-2.62,0-1.38-.33-2.63-.88-3.54Zm-2.12,6.54c-.57,0-1.08-.36-1.44-.93-.34-.53-.56-1.26-.56-2.07,0-.71.17-1.36.44-1.87.36-.69.93-1.13,1.56-1.13.5,0,.96.28,1.31.75.42.54.69,1.35.69,2.25,0,.54-.1,1.05-.28,1.49-.33.9-.98,1.51-1.72,1.51Z"/>
        <path class="cls-2" d="m105.53,165.78c-.21-.47-.5-.85-.83-1.13-.28-.23-.6-.37-.94-.43-.78-.12-1.57.27-2.22,1.01-.31.33-.59.75-.82,1.22-.33.65-.57,1.41-.7,2.24-.17,1.09-.12,2.13.11,3,.13.53.34.99.59,1.37.38.57.89.95,1.48,1.04.55.09,1.11-.08,1.62-.46.35-.25.69-.6.98-1.02.54-.78.96-1.82,1.14-2.99.24-1.47.06-2.85-.41-3.85Zm-.57,3.69c-.11.71-.39,1.34-.75,1.81-.47.6-1.09.94-1.7.84-.65-.11-1.16-.67-1.41-1.46-.15-.53-.19-1.15-.09-1.81.08-.51.24-.97.46-1.37.48-.88,1.23-1.4,1.98-1.28.54.09.97.48,1.25,1.06.28.59.39,1.38.26,2.21Z"/>
        <path class="cls-2" d="m104.8,172.62c-.14-.52-.34-.97-.59-1.34-.4-.6-.92-.98-1.54-1.07-.54-.08-1.08.09-1.57.45-.35.25-.68.6-.97,1.03-.55.8-.95,1.86-1.12,3.05-.2,1.42-.02,2.75.43,3.74.21.46.47.84.79,1.12.31.28.67.45,1.06.51.58.08,1.16-.12,1.68-.52.35-.29.68-.66.97-1.11.49-.78.85-1.78,1.01-2.9.15-1.08.08-2.1-.15-2.96Zm-.84,2.82c-.11.78-.41,1.45-.81,1.93-.44.54-1.01.84-1.59.76-.46-.06-.86-.37-1.13-.83-.39-.6-.56-1.48-.43-2.42.1-.72.37-1.35.72-1.82.46-.61,1.07-.95,1.68-.87.66.09,1.17.66,1.42,1.45.18.52.23,1.15.14,1.8Z"/>
        <path class="cls-2" d="m103.94,178.48c-.21-.45-.48-.83-.79-1.11-.35-.33-.76-.53-1.21-.57-.53-.05-1.04.14-1.51.5-.37.29-.71.69-.99,1.18-.49.82-.82,1.87-.93,3.04-.11,1.28.08,2.47.48,3.39.2.48.46.88.78,1.19.36.38.8.61,1.29.66.6.05,1.19-.19,1.7-.66.33-.29.63-.68.88-1.13.44-.8.75-1.81.85-2.93.12-1.35-.1-2.61-.55-3.56Zm-2.7,6.29c-.57-.05-1.05-.45-1.36-1.06-.3-.56-.44-1.31-.37-2.11.07-.79.34-1.49.72-2,.42-.54.97-.86,1.54-.81.48.04.9.34,1.2.8.4.58.6,1.44.52,2.37-.06.72-.29,1.36-.61,1.85-.43.64-1.02,1.02-1.64.96Z"/>
        <path class="cls-2" d="m103.64,184.97c-.2-.46-.46-.86-.76-1.16-.42-.44-.92-.7-1.46-.72-.55-.02-1.08.2-1.54.62-.34.31-.64.71-.89,1.2-.44.83-.72,1.9-.77,3.06-.05,1.24.18,2.4.6,3.29.21.46.47.85.78,1.15.41.41.89.65,1.41.67.66.03,1.28-.3,1.8-.88.31-.35.59-.79.8-1.29.34-.77.56-1.7.6-2.7.05-1.22-.16-2.35-.57-3.24Zm-2.55,6.12c-.6-.03-1.12-.46-1.47-1.11-.28-.54-.43-1.23-.4-1.97.03-.74.24-1.4.55-1.91.39-.64.96-1.03,1.57-1.01.57.03,1.07.41,1.42,1.01.31.54.49,1.27.46,2.07-.03.6-.16,1.14-.38,1.6-.39.82-1.04,1.35-1.75,1.32Z"/>
        <path class="cls-2" d="m103.61,190.91c-.2-.46-.47-.84-.77-1.14-.41-.41-.89-.66-1.42-.68-.66-.03-1.29.3-1.8.89-.31.35-.59.78-.8,1.28-.34.77-.56,1.7-.6,2.71-.05,1.24.18,2.4.6,3.29.21.46.47.85.78,1.15.41.41.89.65,1.41.67.66.03,1.28-.3,1.8-.88.31-.35.59-.79.8-1.29.34-.77.56-1.7.6-2.7.05-1.25-.17-2.41-.6-3.3Zm-2.52,6.18c-.6-.03-1.12-.46-1.47-1.11-.28-.54-.43-1.23-.4-1.97.03-.6.16-1.14.38-1.6.39-.82,1.03-1.35,1.74-1.32.6.03,1.13.45,1.47,1.11.28.53.44,1.22.41,1.97-.03.6-.16,1.14-.38,1.6-.39.82-1.04,1.35-1.75,1.32Z"/>
        <path class="cls-2" d="m103.61,196.91c-.2-.46-.47-.84-.77-1.14-.41-.41-.89-.66-1.42-.68-.66-.03-1.29.3-1.8.89-.31.35-.59.78-.8,1.28-.34.77-.56,1.7-.6,2.71-.05,1.23.17,2.36.58,3.25.22.49.5.9.82,1.21.4.4.88.63,1.39.65.46.02.9-.13,1.3-.43.35-.24.67-.6.94-1.04.55-.87.91-2.07.96-3.4.05-1.25-.17-2.41-.6-3.3Zm-2.52,6.18c-.54-.03-1.02-.37-1.35-.92-.35-.56-.56-1.32-.52-2.16.03-.6.16-1.14.38-1.6.39-.82,1.03-1.35,1.74-1.32.6.03,1.13.45,1.47,1.11.28.53.44,1.22.41,1.97-.04.91-.34,1.7-.78,2.23-.38.45-.85.71-1.35.69Z"/>
        <path class="cls-2" d="m103.77,205.5c-.08-.7-.26-1.34-.52-1.89-.21-.49-.49-.9-.81-1.21-.41-.4-.88-.64-1.4-.66-.46-.02-.9.14-1.3.43-.35.25-.67.61-.94,1.05-.38.62-.68,1.4-.82,2.28-.03.08-.04.17-.05.25h1.04c.02-.09.05-.17.08-.25.13-.42.33-.79.57-1.07.37-.45.84-.71,1.34-.69.54.03,1.02.37,1.35.91.16.25.29.53.37.85.02.08.04.16.06.25h1.06c-.01-.08-.02-.17-.03-.25Z"/>
      </g>
      <path class="cls-6" d="m205.67,11.5v184c0,5.52-4.48,10-10,10H11.67c-4.64,0-8.55-3.17-9.67-7.46-.22-.81-.33-1.66-.33-2.54V11.5c0-.88.11-1.73.33-2.54.94-3.59,3.82-6.39,7.46-7.21.71-.16,1.45-.25,2.21-.25h184c.76,0,1.5.09,2.21.25,4.46,1,7.79,4.99,7.79,9.75Z"/>
    </g>
  </g>
</svg>